<svg width="655" height="134" viewBox="0 0 655 134" fill="none" xmlns="http://www.w3.org/2000/svg">
<path d="M169.871 99.0788V106.741H160.039V26.7453H169.871V59.0808C173.413 54.1649 179.703 49.8265 188.036 49.8265C204.032 49.8265 213.411 62.3892 213.411 79.1968C213.411 96.0044 203.361 108.458 187.818 108.458C180.155 108.458 173.304 104.681 169.871 99.0944V99.0788ZM186.21 100.78C196.385 100.78 203.127 91.9781 203.127 79.1812C203.127 66.3843 196.495 57.5826 186.21 57.5826C175.926 57.5826 169.293 65.6977 169.293 79.072C169.293 92.4462 176.269 100.78 186.21 100.78Z" fill="black"/>
<path d="M223.242 79.072C223.242 62.4985 233.183 49.8109 248.836 49.8109C257.981 49.8109 264.036 54.8361 266.549 59.0653V51.6368H276.38V106.71H266.549V99.1724C263.583 104.432 256.842 108.427 248.602 108.427C234.198 108.427 223.227 98.0332 223.227 79.0564L223.242 79.072ZM250.334 100.78C260.166 100.78 267.126 92.5555 267.126 79.072C267.126 65.5885 260.275 57.5827 250.334 57.5827C240.393 57.5827 233.417 66.1503 233.417 79.072C233.417 91.9937 240.268 100.78 250.334 100.78Z" fill="black"/>
<path d="M351.477 79.072C351.477 61.7026 363.587 49.8109 379.24 49.8109C392.27 49.8109 402.087 57.6919 403.241 70.1454H393.066C392.146 62.9511 387.245 57.5827 379.005 57.5827C368.487 57.5827 361.636 66.837 361.636 79.072C361.636 92.2122 368.612 100.78 379.24 100.78C387.355 100.78 392.832 96.0981 393.862 88.2171H403.569C402.539 100.218 393.862 108.442 378.771 108.442C363.68 108.442 351.461 98.6106 351.461 79.072H351.477Z" fill="black"/>
<path d="M412.559 79.072C412.559 62.4985 422.5 49.8109 438.152 49.8109C447.297 49.8109 453.352 54.8361 455.865 59.0653V51.6368H465.697V106.71H455.865V99.1724C452.9 104.432 446.158 108.427 437.918 108.427C423.514 108.427 412.543 98.0332 412.543 79.0564L412.559 79.072ZM439.635 100.78C449.467 100.78 456.427 92.5555 456.427 79.072C456.427 65.5885 449.576 57.5827 439.635 57.5827C429.694 57.5827 422.718 66.1503 422.718 79.072C422.718 91.9937 429.569 100.78 439.635 100.78Z" fill="black"/>
<path d="M508.211 50.9657H522.147V53.4782C522.147 55.1949 522.038 57.13 521.694 58.9559C524.441 54.04 529.575 49.1241 537.8 49.1241C544.776 49.1241 550.362 54.4926 552.422 59.5177C555.622 54.1493 562.364 49.1241 570.479 49.1241C581.793 49.1241 589.674 58.0352 589.674 71.6435V106.726H575.738V73.7035C575.738 65.5884 572.538 60.22 566.483 60.22C560.428 60.22 555.856 65.8225 555.856 74.2809V106.741H541.92V73.7191C541.92 65.604 538.954 60.2356 532.665 60.2356C526.376 60.2356 522.147 65.604 522.147 74.2965V106.757H508.211V50.9969V50.9657Z" fill="black"/>
<path d="M599.844 78.7286C599.844 61.1251 611.611 49.1241 627.841 49.1241C644.867 49.1241 654.699 61.0159 654.699 79.1812V82.2712H614.139C614.248 91.0729 619.851 97.8146 628.309 97.8146C634.364 97.8146 639.28 94.3813 640.201 88.5603H654.371C653.232 99.9839 643.4 108.786 628.309 108.786C611.626 108.786 599.859 98.0487 599.859 78.7286H599.844ZM640.419 72.2209C640.185 64.6833 635.285 59.5333 627.732 59.5333C620.178 59.5333 614.825 64.9018 614.014 72.2209H640.404H640.419Z" fill="black"/>
<path d="M302.086 106.726H292.238L292.363 61.0783H302.21L302.086 106.726Z" fill="black"/>
<path d="M303.133 51.6523V59.7674H330.521V106.71H340.369V68.7252C340.369 59.2992 332.722 51.6523 323.296 51.6523H303.133Z" fill="black"/>
<path d="M483.255 93.4449C481.928 93.4449 480.852 94.5529 480.852 95.9107V104.291C480.852 105.649 481.928 106.757 483.255 106.757H491.464C492.79 106.757 493.867 105.649 493.867 104.291V95.9107C493.867 94.5529 492.79 93.4449 491.464 93.4449H483.255Z" fill="black"/>
<path d="M14.1049 52.9631C6.7857 52.9631 0.839844 58.909 0.839844 66.2282C0.839844 73.5473 6.7857 79.4932 14.1049 79.4932H93.4454C100.765 79.4932 106.71 73.5473 106.71 66.2282C106.71 58.909 100.765 52.9631 93.4454 52.9631H14.1049Z" fill="#7A59E6"/>
<path d="M53.9317 106.85C49.9678 106.85 46.8466 108.536 43.9907 111.392C41.1348 114.248 38.0761 115.746 34.159 115.746C30.2419 115.746 27.3392 114.372 24.2336 111.267C21.128 108.161 18.319 106.85 14.4175 106.85C7.14513 106.85 1.23047 112.749 1.23047 120.037C1.23047 127.325 7.12953 133.224 14.4175 133.224C18.3502 133.224 21.3153 131.726 24.2804 128.761C27.2456 125.796 30.2263 124.329 34.159 124.329C38.0917 124.329 40.9943 125.718 44.1311 128.855C47.2679 131.991 50.0302 133.224 53.9161 133.224C61.1884 133.224 67.1031 127.325 67.1031 120.037C67.1031 112.749 61.204 106.85 53.9161 106.85H53.9317Z" fill="#7A59E6"/>
<path d="M14.015 0.074646C6.68024 0.074646 0.71875 6.03609 0.71875 13.3709C0.71875 20.7057 6.68024 26.6671 14.015 26.6671H54.3719C61.7067 26.6671 67.6682 20.7057 67.6682 13.3709C67.6682 6.03609 61.7067 0.074646 54.3719 0.074646H14.015Z" fill="#7A59E6"/>
<path d="M93.4175 26.5266C100.7 26.5266 106.605 20.6226 106.605 13.3396C106.605 6.05664 100.7 0.152649 93.4175 0.152649C86.1345 0.152649 80.2305 6.05664 80.2305 13.3396C80.2305 20.6226 86.1345 26.5266 93.4175 26.5266Z" fill="#7A59E6"/>
<path d="M85.3026 107.022C82.6496 107.022 80.4805 109.176 80.4805 111.844V128.246C80.4805 130.899 82.634 133.068 85.3026 133.068H101.798C104.451 133.068 106.62 130.915 106.62 128.246V111.844C106.62 109.191 104.467 107.022 101.798 107.022H85.3026Z" fill="#7A59E6"/>
</svg>
