<svg xmlns="http://www.w3.org/2000/svg" xmlns:xlink="http://www.w3.org/1999/xlink" width="546" zoomAndPan="magnify" viewBox="0 0 409.5 291.749991" height="389" preserveAspectRatio="xMidYMid meet" version="1.0"><defs><clipPath id="793e6d0390"><path d="M 0 0.0546875 L 409 0.0546875 L 409 291.445312 L 0 291.445312 Z M 0 0.0546875 " clip-rule="nonzero"/></clipPath><clipPath id="05d4b01e34"><path d="M 299 136 L 409 136 L 409 291.445312 L 299 291.445312 Z M 299 136 " clip-rule="nonzero"/></clipPath><clipPath id="60750da283"><path d="M 103 0.0546875 L 231 0.0546875 L 231 90 L 103 90 Z M 103 0.0546875 " clip-rule="nonzero"/></clipPath></defs><g clip-path="url(#793e6d0390)"><path fill="#ffffff" d="M 0 0.0546875 L 409 0.0546875 L 409 291.445312 L 0 291.445312 Z M 0 0.0546875 " fill-opacity="1" fill-rule="nonzero"/><path fill="#ffffff" d="M 0 0.0546875 L 409 0.0546875 L 409 291.445312 L 0 291.445312 Z M 0 0.0546875 " fill-opacity="1" fill-rule="nonzero"/></g><path fill="#fec3aa" d="M 320.855469 253.679688 L 299.914062 250.59375 C 299.914062 250.59375 283.683594 246.914062 275.011719 247.902344 C 266.34375 248.894531 260.167969 248.21875 255.101562 252.292969 C 250.035156 256.367188 251.695312 260.558594 251.695312 260.558594 C 251.695312 260.558594 247.699219 264.632812 248.210938 266.332031 C 248.726562 268.035156 248.09375 274.28125 249.714844 275.785156 C 251.339844 277.289062 252.011719 277.367188 252.011719 277.367188 C 252.765625 278.792969 254.191406 279.742188 255.773438 279.859375 C 258.464844 280.058594 267.332031 275.984375 270.023438 276.0625 C 272.71875 276.140625 285.066406 277.171875 291.441406 276.300781 C 297.816406 275.429688 301.21875 273.175781 301.21875 273.175781 L 327.546875 281.441406 C 327.546875 281.441406 326.636719 261.429688 320.855469 253.679688 Z M 320.855469 253.679688 " fill-opacity="1" fill-rule="nonzero"/><path fill="#fec3aa" d="M 172.957031 123.5625 C 171.292969 121.46875 169.472656 119.488281 167.492188 117.671875 C 164.683594 115.296875 162.226562 108.8125 165.117188 107.152344 C 168.007812 105.488281 178.339844 114.507812 181.824219 118.976562 C 185.308594 123.445312 194.097656 136.21875 196.707031 143.378906 C 199.320312 150.535156 197.183594 154.214844 198.09375 155.914062 L 205.257812 169.875 C 205.257812 169.875 199.085938 174.34375 192.316406 177.113281 C 185.546875 179.878906 182.535156 180 182.535156 180 C 182.535156 180 175.570312 166.550781 174.460938 165.878906 C 173.351562 165.207031 168.679688 162.992188 166.980469 160.304688 C 165.910156 158.523438 165.117188 156.625 164.601562 154.609375 C 164.601562 154.609375 159.339844 153.421875 157.121094 149.230469 C 154.90625 145.039062 153.636719 141.675781 154.429688 138.910156 C 155.222656 136.140625 156.726562 134.597656 158.824219 133.925781 C 159.574219 131.828125 160.960938 130.011719 162.820312 128.746094 C 165.789062 126.847656 165.988281 127.242188 166.304688 127.359375 C 166.621094 127.480469 167.492188 122.773438 172.957031 123.5625 Z M 172.957031 123.5625 " fill-opacity="1" fill-rule="nonzero"/><path fill="#a3dfbe" d="M 182.417969 180.316406 C 181.980469 180.316406 202.6875 242.210938 212.226562 251.304688 C 221.769531 260.402344 243.816406 250.078125 248.292969 246.402344 C 252.765625 242.722656 271.847656 223.148438 271.847656 223.148438 C 271.847656 223.148438 276.597656 231.886719 277.980469 237.027344 C 279.367188 242.167969 282.734375 246.953125 282.457031 247.390625 C 282.179688 247.824219 305.890625 251.582031 310.640625 251.976562 C 314.085938 252.332031 317.492188 252.925781 320.855469 253.679688 C 320.855469 253.679688 328.652344 271.753906 327.546875 281.441406 C 327.546875 281.441406 355.96875 288.835938 372.832031 290.0625 C 389.699219 291.289062 402.128906 284.089844 405.375 275.390625 C 408.621094 266.691406 407.828125 251.1875 407.15625 247.628906 C 406.484375 244.066406 398.84375 175.175781 398.84375 175.175781 C 398.84375 175.175781 394.09375 156.941406 380.355469 152.59375 C 366.617188 148.242188 352.722656 139.660156 350.941406 136.417969 C 349.160156 133.171875 350.785156 131.078125 348.882812 130.128906 C 346.984375 129.179688 317.054688 126.886719 317.054688 126.886719 C 317.054688 126.886719 314.441406 127.003906 314.601562 128.902344 C 314.757812 130.800781 313.769531 133.804688 311.59375 134.636719 C 309.414062 135.46875 294.449219 137.089844 289.421875 137.089844 C 284.394531 137.089844 271.292969 140.609375 266.382812 147.53125 C 261.472656 154.449219 251.140625 178.8125 247.617188 184.390625 C 244.09375 189.964844 226.359375 210.53125 226.359375 210.53125 L 205.535156 169.992188 C 205.535156 169.992188 187.167969 180.316406 182.417969 180.316406 Z M 182.417969 180.316406 " fill-opacity="1" fill-rule="nonzero"/><path fill="#fec3aa" d="M 308.742188 60.996094 C 308.742188 60.996094 295.242188 62.933594 292.589844 71.675781 C 289.9375 80.414062 292.828125 87.179688 292.828125 90.460938 C 292.828125 93.742188 293.421875 107.347656 294.53125 110.355469 C 295.636719 113.359375 301.8125 123.839844 309.097656 125.898438 C 316.382812 127.953125 321.84375 127.597656 321.84375 127.597656 L 347.21875 129.535156 C 347.21875 129.535156 344.804688 117.632812 346.230469 110.472656 C 346.230469 110.472656 345.636719 110.472656 348.804688 107.191406 C 351.972656 103.90625 354.265625 100.070312 353.910156 95.800781 C 353.554688 91.527344 350.507812 89.988281 348.328125 90.34375 C 346.152344 90.699219 343.460938 92.753906 343.460938 92.753906 C 343.460938 92.753906 335.9375 91.210938 331.542969 78.082031 C 327.148438 64.953125 322.28125 56.332031 315.15625 56.132812 C 310.445312 56.015625 308.742188 60.996094 308.742188 60.996094 Z M 308.742188 60.996094 " fill-opacity="1" fill-rule="nonzero"/><path fill="#734c4c" d="M 292.550781 88.40625 C 292.550781 88.40625 284.671875 82.90625 286.929688 71.320312 C 289.183594 59.730469 297.617188 49.765625 302.527344 46.445312 C 307.433594 43.121094 317.054688 38.96875 332.613281 39.363281 C 348.171875 39.761719 353.277344 45.929688 356.285156 49.449219 C 359.292969 52.96875 363.332031 58.347656 363.332031 58.347656 C 363.332031 58.347656 367.371094 52.769531 372.675781 54.628906 C 377.980469 56.488281 385.34375 60.007812 388.945312 68.945312 C 392.546875 77.882812 389.894531 93.070312 387.519531 97.976562 C 385.144531 102.878906 382.335938 115.574219 383.679688 121.703125 C 385.027344 127.835938 388.945312 131.949219 389.261719 131.75 C 389.578125 131.550781 385.34375 134.753906 377.148438 131.949219 C 368.953125 129.140625 362.621094 116.601562 361.351562 111.222656 C 360.601562 108.058594 360.402344 104.816406 360.71875 101.574219 C 360.71875 101.574219 350.269531 111.34375 348.605469 113.003906 C 346.945312 114.664062 346.113281 119.332031 346.113281 119.332031 L 346.230469 110.472656 C 346.230469 110.472656 352.722656 104.382812 353.671875 99.398438 C 354.625 94.417969 353.355469 91.332031 350.546875 90.382812 C 347.734375 89.433594 343.460938 92.753906 343.460938 92.753906 C 343.460938 92.753906 336.335938 89.671875 332.492188 80.140625 C 328.652344 70.609375 326.476562 61.472656 322.320312 60.839844 C 318.164062 60.207031 312.976562 62.105469 312.976562 62.105469 C 312.976562 62.105469 308.542969 60.128906 305.734375 60.640625 C 302.921875 61.15625 295.875 64.359375 293.777344 69.660156 C 291.679688 74.957031 291.007812 81.167969 292.550781 88.40625 Z M 292.550781 88.40625 " fill-opacity="1" fill-rule="nonzero"/><path fill="#000000" d="M 363.175781 181.621094 C 363.292969 200.683594 365.429688 219.746094 367.210938 238.730469 C 367.6875 243.632812 368.164062 248.578125 368.597656 253.519531 C 368.714844 254.863281 370.816406 254.863281 370.695312 253.519531 C 369.074219 234.535156 366.855469 215.554688 365.789062 196.492188 C 365.511719 191.546875 365.3125 186.605469 365.273438 181.621094 C 365.273438 180.277344 363.175781 180.277344 363.175781 181.621094 Z M 363.175781 181.621094 " fill-opacity="1" fill-rule="nonzero"/><path fill="#000000" d="M 182.972656 144.722656 C 180.792969 140.53125 176.71875 138 173.828125 134.4375 C 173.113281 133.570312 172.242188 132.421875 172.324219 131.273438 C 172.402344 130.128906 173.667969 129.496094 174.738281 129.457031 C 175.804688 129.417969 177.351562 129.929688 178.539062 130.40625 C 179.6875 130.839844 180.792969 131.355469 181.863281 131.90625 C 184.359375 133.171875 186.613281 134.914062 188.476562 137.011719 C 189.34375 138.039062 190.808594 136.535156 189.9375 135.507812 C 188.078125 133.371094 185.820312 131.589844 183.328125 130.285156 C 182.0625 129.613281 180.714844 129.019531 179.371094 128.507812 C 177.984375 127.953125 176.558594 127.398438 175.054688 127.359375 C 172.242188 127.242188 169.671875 129.417969 170.34375 132.382812 C 171.015625 135.347656 173.3125 137.128906 175.171875 138.910156 C 177.035156 140.6875 179.726562 143.019531 181.152344 145.789062 C 181.746094 146.976562 183.566406 145.910156 182.972656 144.722656 Z M 182.972656 144.722656 " fill-opacity="1" fill-rule="nonzero"/><path fill="#000000" d="M 175.726562 124.867188 C 173.828125 120.914062 170.027344 118.738281 167.335938 115.457031 C 165.949219 113.792969 164.445312 111.183594 165.117188 108.929688 C 165.515625 107.625 166.78125 108.179688 167.691406 108.613281 C 168.484375 109.007812 169.234375 109.445312 169.988281 109.917969 C 176.757812 114.070312 182.378906 120.558594 186.734375 127.121094 C 189.703125 131.75 192.316406 136.613281 194.492188 141.675781 C 195.878906 144.800781 197.144531 148.164062 196.867188 151.644531 C 196.707031 152.710938 196.667969 153.816406 196.828125 154.925781 C 197.027344 155.953125 197.621094 156.785156 198.09375 157.695312 C 200.230469 161.6875 202.210938 165.800781 204.347656 169.796875 C 207.082031 175.015625 209.96875 180.117188 212.980469 185.179688 C 213.652344 186.367188 215.472656 185.296875 214.761719 184.152344 C 211.949219 179.367188 209.21875 174.542969 206.605469 169.636719 C 204.429688 165.5625 202.449219 161.371094 200.273438 157.296875 C 199.757812 156.390625 199.003906 155.398438 198.847656 154.371094 C 198.6875 153.34375 198.964844 152 199.003906 150.773438 C 199.085938 147.015625 197.539062 143.378906 195.996094 139.976562 C 193.542969 134.480469 190.652344 128.941406 187.128906 124.039062 C 184.59375 120.480469 181.746094 117.15625 178.578125 114.109375 C 175.765625 111.382812 172.601562 108.734375 169.035156 106.953125 C 167.335938 106.121094 164.839844 105.253906 163.574219 107.269531 C 162.308594 109.285156 162.980469 112.054688 163.929688 113.992188 C 166.226562 118.816406 171.609375 121.113281 173.90625 125.898438 C 174.5 127.121094 176.28125 126.054688 175.726562 124.867188 Z M 175.726562 124.867188 " fill-opacity="1" fill-rule="nonzero"/><path fill="#000000" d="M 159.0625 133.09375 C 156.011719 132.582031 154.152344 135.785156 153.597656 138.355469 C 152.804688 141.796875 153.875 145.117188 155.5 148.125 C 156.210938 149.429688 156.921875 150.96875 157.914062 152.078125 C 158.386719 152.550781 158.863281 152.949219 159.417969 153.34375 C 161.078125 154.609375 163.335938 155.875 165.472656 155.203125 C 167.613281 154.53125 168.800781 152.078125 167.929688 149.746094 C 167.492188 148.480469 165.433594 149.03125 165.910156 150.296875 C 166.148438 150.890625 166.382812 151.644531 166.109375 152.277344 C 165.832031 152.910156 164.601562 153.382812 163.773438 153.265625 C 162.269531 152.988281 160.484375 151.839844 159.457031 150.652344 C 158.425781 149.46875 158.070312 148.480469 157.476562 147.410156 C 156.644531 145.988281 156.011719 144.445312 155.617188 142.824219 C 155.261719 141.164062 155.339844 139.460938 155.894531 137.878906 C 156.25 136.890625 157.199219 134.914062 158.507812 135.152344 C 159.8125 135.386719 160.40625 133.332031 159.0625 133.09375 Z M 159.0625 133.09375 " fill-opacity="1" fill-rule="nonzero"/><path fill="#000000" d="M 165.949219 126.609375 C 162.863281 126.765625 160.40625 128.664062 159.179688 131.433594 C 157.953125 134.203125 158.308594 137.917969 159.65625 140.925781 C 161.039062 143.8125 162.820312 146.5 164.960938 148.914062 C 166.382812 150.574219 168.207031 152.710938 170.582031 152.316406 C 172.242188 152.039062 173.707031 151.328125 174.421875 149.664062 C 175.132812 148.003906 174.894531 146.421875 173.867188 145.511719 C 172.835938 144.601562 171.371094 146.066406 172.363281 146.976562 C 173.351562 147.886719 172.164062 149.824219 170.976562 150.140625 C 169.789062 150.457031 169.710938 150.417969 168.957031 149.902344 C 166.621094 148.28125 164.878906 145.59375 163.375 143.257812 C 161.871094 140.925781 159.851562 137.207031 160.566406 133.886719 C 161.121094 131.195312 163.058594 128.824219 165.949219 128.703125 C 167.296875 128.625 167.296875 126.53125 165.949219 126.609375 Z M 165.949219 126.609375 " fill-opacity="1" fill-rule="nonzero"/><path fill="#000000" d="M 178.222656 143.851562 C 178.261719 144.878906 177.945312 146.226562 176.71875 146.304688 C 174.460938 146.5 172.601562 143.96875 171.492188 142.347656 C 169.039062 138.867188 166.503906 134.597656 166.859375 130.207031 C 167.019531 128.347656 167.808594 125.816406 169.671875 124.988281 C 170.898438 124.433594 172.285156 124.550781 173.429688 125.222656 C 174.539062 126.015625 175.570312 124.195312 174.5 123.40625 C 173.429688 122.613281 171.609375 122.496094 170.144531 122.691406 C 168.679688 122.890625 166.703125 124.433594 165.832031 126.253906 C 164.207031 129.574219 164.523438 133.648438 165.988281 136.929688 C 166.980469 139.144531 168.207031 141.28125 169.589844 143.296875 C 171.214844 145.632812 173.390625 148.320312 176.480469 148.398438 C 179.566406 148.480469 180.398438 146.183594 180.320312 143.851562 C 180.28125 142.507812 178.183594 142.507812 178.222656 143.851562 Z M 178.222656 143.851562 " fill-opacity="1" fill-rule="nonzero"/><path fill="#000000" d="M 164.007812 154.6875 C 165.789062 159.789062 168.402344 165.246094 174.183594 166.550781 L 173.550781 166.078125 C 176.757812 171.574219 179.964844 177.03125 182.457031 182.886719 C 182.972656 184.152344 184.792969 183.085938 184.277344 181.859375 C 181.902344 176.28125 178.894531 171.140625 175.886719 165.921875 C 175.53125 165.246094 175.332031 164.734375 174.578125 164.496094 C 173.195312 164.0625 171.886719 163.347656 170.777344 162.441406 C 168.207031 160.265625 167.097656 157.21875 166.027344 154.132812 C 165.59375 152.867188 163.574219 153.421875 164.007812 154.6875 Z M 164.007812 154.6875 " fill-opacity="1" fill-rule="nonzero"/><path fill="#000000" d="M 263.253906 250.988281 C 260.601562 252.015625 258.109375 253.441406 255.8125 255.140625 C 253.714844 256.800781 251.855469 258.699219 250.191406 260.796875 C 248.210938 263.328125 246.113281 267.085938 248.804688 269.933594 C 249.714844 270.921875 251.179688 269.417969 250.269531 268.429688 C 248.292969 266.375 250.984375 263.210938 252.210938 261.628906 C 255.257812 257.792969 259.257812 254.824219 263.808594 253.007812 C 265.078125 252.492188 264.523438 250.476562 263.253906 250.988281 Z M 263.253906 250.988281 " fill-opacity="1" fill-rule="nonzero"/><path fill="#000000" d="M 266.460938 256.882812 C 263.730469 257.988281 261.15625 259.375 258.78125 261.074219 C 256.445312 262.578125 254.230469 264.238281 252.132812 266.015625 C 249.835938 268.074219 247.578125 271.039062 248.25 274.363281 C 248.6875 276.457031 250.429688 277.683594 252.449219 278.160156 C 253.753906 278.4375 254.308594 276.417969 253.003906 276.140625 C 251.695312 275.863281 250.152344 274.71875 250.230469 272.859375 C 250.308594 271.710938 250.984375 270.445312 251.773438 269.417969 C 253.554688 267.164062 256.089844 265.503906 258.425781 263.882812 C 260.761719 262.261719 263.929688 260.125 267.015625 258.9375 C 268.242188 258.425781 267.730469 256.40625 266.460938 256.882812 Z M 266.460938 256.882812 " fill-opacity="1" fill-rule="nonzero"/><path fill="#000000" d="M 270.660156 264.554688 C 266.976562 265.382812 263.570312 267.125 260.484375 269.300781 C 258.941406 270.367188 257.4375 271.554688 256.011719 272.78125 L 253.875 274.640625 C 253.28125 275.191406 252.210938 275.863281 251.816406 276.617188 C 251.417969 277.367188 251.734375 278.753906 252.289062 279.425781 C 253.597656 281.203125 256.207031 280.925781 258.148438 280.570312 C 261.078125 280.019531 263.929688 278.910156 266.777344 277.960938 C 268.164062 277.445312 269.628906 277.171875 271.132812 277.171875 C 275.6875 277.128906 280.238281 277.566406 284.832031 277.445312 C 287.957031 277.445312 291.085938 277.128906 294.171875 276.617188 C 296.785156 276.140625 299.519531 275.351562 301.65625 273.730469 C 302.722656 272.9375 301.695312 271.121094 300.585938 271.910156 C 296.90625 274.71875 291.519531 275.074219 287.046875 275.273438 C 282.574219 275.46875 277.863281 275.3125 273.230469 275.113281 C 271.847656 275.035156 270.421875 275.074219 269.035156 275.230469 C 267.53125 275.429688 266.105469 275.984375 264.679688 276.457031 C 261.910156 277.445312 258.703125 278.792969 255.695312 278.753906 C 255.101562 278.753906 254.347656 278.671875 253.914062 278.160156 C 253.792969 277.960938 253.714844 277.722656 253.753906 277.488281 C 253.714844 277.171875 253.792969 277.367188 253.714844 277.40625 L 253.792969 277.605469 L 254.425781 277.011719 L 255.695312 275.863281 C 257.238281 274.480469 258.820312 273.097656 260.484375 271.871094 C 263.730469 269.457031 267.253906 267.480469 271.210938 266.570312 C 272.558594 266.292969 272.003906 264.277344 270.660156 264.554688 Z M 270.660156 264.554688 " fill-opacity="1" fill-rule="nonzero"/><path fill="#000000" d="M 252.449219 259.175781 C 251.65625 257.433594 252.210938 255.417969 253.359375 253.996094 C 254.507812 252.570312 255.257812 252.570312 256.289062 252.097656 C 258.703125 250.949219 261.195312 250 263.769531 249.328125 C 265.234375 248.972656 266.738281 248.8125 268.242188 248.8125 C 270.617188 248.695312 272.992188 248.695312 275.328125 248.773438 C 280.832031 248.894531 286.375 249.289062 291.835938 250 C 294.09375 250.277344 296.351562 250.710938 298.566406 251.226562 C 299.636719 251.503906 300.664062 251.9375 301.773438 252.097656 C 310.285156 253.203125 318.875 254.191406 327.464844 255.023438 C 339.5 256.210938 351.613281 256.722656 363.6875 256.566406 C 373.863281 256.40625 384.078125 256.050781 394.25 255.539062 L 394.804688 255.539062 C 396.152344 255.457031 396.152344 253.363281 394.804688 253.441406 C 385.738281 253.875 376.632812 254.191406 367.570312 254.390625 C 361.078125 254.546875 354.582031 254.667969 348.089844 254.429688 C 341.597656 254.191406 335.976562 253.71875 329.921875 253.125 C 320.617188 252.292969 311.316406 251.226562 302.011719 250.039062 L 301.378906 249.960938 C 301.578125 250 300.902344 249.722656 300.746094 249.644531 L 299.359375 249.289062 C 297.0625 248.734375 294.726562 248.300781 292.390625 247.984375 C 286.769531 247.230469 281.148438 246.796875 275.488281 246.679688 C 271.570312 246.597656 267.175781 246.28125 263.335938 247.273438 C 260.800781 247.945312 258.347656 248.851562 255.972656 249.921875 C 253.320312 251.109375 251.101562 252.570312 250.230469 255.539062 C 249.796875 257.078125 249.953125 258.742188 250.628906 260.203125 C 251.179688 261.429688 253.003906 260.363281 252.449219 259.175781 Z M 252.449219 259.175781 " fill-opacity="1" fill-rule="nonzero"/><path fill="#6293f1" d="M 220.9375 193.207031 C 220.9375 193.207031 218.285156 187.828125 216.699219 186.722656 C 215.195312 185.65625 209.457031 184.902344 209.457031 184.902344 C 199.679688 184.664062 83.011719 184.546875 83.011719 184.546875 C 83.011719 184.546875 76.480469 184.746094 78.144531 191.667969 C 79.808594 198.585938 102.925781 269.539062 103.597656 271.753906 C 104.273438 273.964844 107.835938 276.539062 114.011719 276.300781 C 120.1875 276.0625 250.269531 274.679688 250.269531 274.679688 C 241.679688 247.113281 231.902344 219.984375 220.9375 193.207031 Z M 220.9375 193.207031 " fill-opacity="1" fill-rule="nonzero"/><path fill="#000000" d="M 251.300781 274.402344 C 245.875 257.039062 240.019531 239.835938 233.644531 222.832031 C 230.4375 214.25 227.113281 205.707031 223.667969 197.203125 C 222.320312 193.839844 221.371094 189.964844 218.71875 187.394531 C 214.40625 183.242188 208.1875 183.835938 202.648438 183.796875 L 182.535156 183.675781 L 155.140625 183.675781 L 126.203125 183.597656 L 85.585938 183.597656 C 82.140625 183.597656 78.105469 183.875 77.035156 187.988281 C 76.402344 190.519531 77.390625 193.167969 78.105469 195.582031 L 80.835938 204.402344 C 83.527344 213.023438 86.300781 221.683594 89.070312 230.304688 C 91.839844 238.925781 94.808594 248.101562 97.699219 257 L 102.492188 271.632812 C 104.390625 277.527344 111.675781 277.40625 116.859375 277.289062 L 132.140625 277.089844 L 156.09375 276.773438 L 184.199219 276.457031 L 212.070312 276.140625 L 234.949219 275.90625 L 248.449219 275.746094 L 250.269531 275.746094 C 251.617188 275.746094 251.617188 273.648438 250.269531 273.648438 L 243.183594 273.730469 L 224.738281 273.925781 L 199.320312 274.242188 L 171.214844 274.558594 L 144.769531 274.875 L 124.34375 275.152344 L 114.207031 275.3125 C 110.960938 275.390625 105.695312 274.875 104.507812 271.160156 C 103.996094 269.496094 103.441406 267.875 102.925781 266.214844 C 100.589844 258.976562 98.214844 251.78125 95.878906 244.542969 C 92.949219 235.40625 89.980469 226.230469 87.089844 217.097656 C 84.792969 209.976562 82.539062 202.898438 80.402344 195.777344 C 79.808594 193.800781 78.816406 191.46875 78.9375 189.371094 C 79.054688 187.277344 81.191406 185.65625 83.09375 185.613281 C 86.21875 185.574219 89.347656 185.65625 92.476562 185.65625 L 113.457031 185.65625 L 140.8125 185.734375 L 169.195312 185.734375 L 193.34375 185.851562 C 198.253906 185.851562 203.121094 185.851562 208.03125 185.929688 C 211.433594 185.972656 214.839844 186.484375 217.375 189.054688 C 218.441406 190.125 219.273438 191.390625 219.75 192.8125 C 220.539062 195.226562 221.570312 197.519531 222.519531 199.851562 C 229.210938 216.503906 235.464844 233.269531 241.207031 250.238281 C 244.015625 258.464844 246.667969 266.691406 249.28125 274.957031 C 249.675781 276.222656 251.695312 275.667969 251.300781 274.402344 Z M 251.300781 274.402344 " fill-opacity="1" fill-rule="nonzero"/><path fill="#000000" d="M 277.230469 159 C 279.84375 171.972656 278.417969 185.457031 273.074219 197.558594 C 270.738281 202.820312 268.007812 207.839844 268.480469 213.773438 C 268.640625 216.582031 269.234375 219.3125 270.183594 221.960938 C 271.015625 224.292969 272.203125 226.46875 273.3125 228.644531 C 276.359375 234.773438 279.167969 241.023438 280.910156 247.667969 C 281.269531 248.972656 283.285156 248.417969 282.929688 247.113281 C 281.386719 241.21875 279.011719 235.566406 276.320312 230.066406 C 273.945312 225.164062 271.253906 220.496094 270.660156 214.960938 C 270.300781 212.113281 270.578125 209.265625 271.488281 206.535156 C 272.441406 203.6875 273.863281 201 275.050781 198.269531 C 280.515625 185.734375 281.980469 171.851562 279.25 158.445312 C 278.972656 157.140625 276.953125 157.695312 277.230469 159 Z M 277.230469 159 " fill-opacity="1" fill-rule="nonzero"/><path fill="#000000" d="M 229.132812 209.066406 C 240.058594 197.875 249.121094 184.546875 256.089844 170.585938 C 259.21875 164.339844 261.277344 157.496094 265.117188 151.644531 C 268.957031 145.789062 273.945312 141.753906 280.199219 139.5 C 285.1875 137.683594 290.371094 138.078125 295.597656 137.960938 C 299.121094 137.839844 302.605469 137.523438 306.089844 137.011719 C 308.703125 136.613281 311.949219 136.140625 314.007812 134.359375 C 315.074219 133.488281 315.390625 132.304688 315.511719 130.957031 C 315.550781 130.285156 315.273438 128.863281 316.027344 128.585938 C 316.777344 128.308594 318.363281 128.585938 319.273438 128.585938 C 323.546875 128.664062 327.863281 128.863281 332.175781 129.140625 C 336.53125 129.296875 340.886719 129.734375 345.203125 130.367188 C 345.914062 130.445312 346.585938 130.601562 347.261719 130.761719 C 347.65625 130.839844 348.289062 131.15625 348.449219 131.15625 C 348.605469 131.15625 348.410156 131.316406 348.449219 131.117188 C 348.488281 130.917969 348.25 130.5625 348.25 130.5625 C 348.25 130.5625 348.289062 131.394531 348.289062 131.433594 C 348.367188 132.621094 348.605469 133.765625 348.921875 134.914062 C 349.320312 136.257812 350.03125 137.484375 350.980469 138.511719 C 351.929688 139.5 353.394531 138 352.445312 137.050781 C 350.703125 135.269531 350.664062 132.898438 350.347656 130.601562 C 350.191406 129.457031 349.082031 129.0625 348.050781 128.785156 C 344.371094 127.796875 340.332031 127.636719 336.53125 127.320312 C 331.78125 126.964844 327.03125 126.726562 322.28125 126.570312 L 317.410156 126.488281 C 316.222656 126.488281 314.796875 126.371094 314.007812 127.480469 C 313.214844 128.585938 313.570312 130.089844 313.332031 131.355469 C 313.097656 132.621094 311.949219 133.332031 310.640625 133.804688 C 307.476562 134.914062 303.953125 135.269531 300.625 135.546875 C 295.003906 136.0625 289.183594 135.386719 283.5625 136.417969 C 277.941406 137.445312 271.726562 140.886719 267.492188 145.316406 C 263.253906 149.746094 260.050781 156.46875 257.398438 162.757812 C 251.179688 177.546875 242.078125 191.546875 231.425781 203.53125 C 230.199219 204.914062 228.933594 206.257812 227.667969 207.605469 C 226.398438 208.949219 228.179688 210.054688 229.132812 209.066406 Z M 229.132812 209.066406 " fill-opacity="1" fill-rule="nonzero"/><path fill="#000000" d="M 243.34375 249.445312 C 244.6875 252.097656 248.410156 247.585938 249.519531 246.640625 C 251.972656 244.503906 254.46875 242.40625 256.921875 240.191406 C 262.464844 235.25 267.847656 229.910156 271.847656 223.621094 C 272.558594 222.472656 270.738281 221.40625 270.023438 222.554688 C 266.5 228.128906 261.789062 232.914062 256.921875 237.382812 C 254.664062 239.441406 252.367188 241.417969 250.074219 243.394531 L 247.222656 245.886719 L 245.875 247.074219 L 245.28125 247.628906 L 245.003906 247.902344 C 244.6875 248.101562 244.730469 248.261719 245.164062 248.378906 C 244.570312 247.191406 242.75 248.261719 243.34375 249.445312 Z M 243.34375 249.445312 " fill-opacity="1" fill-rule="nonzero"/><g clip-path="url(#05d4b01e34)"><path fill="#000000" d="M 352.289062 138.59375 C 357.355469 143.019531 363.015625 146.265625 369.191406 148.835938 C 375.367188 151.40625 382.375 153.421875 387.640625 158.050781 C 392.269531 162.164062 395.953125 167.898438 397.101562 174.027344 C 397.300781 175.132812 397.417969 176.242188 397.574219 177.347656 C 398.566406 183.953125 399.515625 190.558594 400.425781 197.164062 C 401.734375 206.773438 403 216.34375 404.109375 225.953125 C 405.214844 235.566406 406.167969 244.1875 406.722656 253.324219 C 407.15625 260.363281 407.550781 267.597656 404.78125 274.242188 C 400.546875 284.488281 389.855469 288.085938 379.5625 288.875 C 370.261719 289.589844 360.996094 287.808594 351.890625 285.949219 C 341.597656 283.773438 331.386719 281.164062 321.25 278.394531 C 314.878906 276.617188 308.503906 274.796875 302.210938 272.898438 L 301.257812 272.582031 C 299.953125 272.1875 299.398438 274.203125 300.707031 274.597656 C 305.335938 276.0625 310.046875 277.40625 314.71875 278.753906 C 324.695312 281.558594 334.75 284.25 344.84375 286.542969 C 354.148438 288.640625 363.730469 290.816406 373.308594 291.128906 C 382.890625 291.445312 395.597656 289.628906 402.683594 281.558594 C 408.066406 275.429688 409.292969 267.242188 409.097656 259.332031 C 408.898438 251.425781 408.027344 242.367188 407.117188 233.945312 C 406.046875 223.898438 404.78125 213.851562 403.433594 203.847656 C 402.367188 195.976562 401.257812 188.105469 400.109375 180.277344 C 399.832031 178.296875 399.554688 176.359375 399.238281 174.382812 C 398.683594 171.023438 397.496094 167.777344 395.792969 164.8125 C 392.46875 158.917969 387.324219 154.214844 381.148438 151.445312 C 374.933594 148.714844 368.359375 146.660156 362.421875 143.296875 C 359.335938 141.519531 356.445312 139.460938 353.753906 137.128906 C 352.761719 136.21875 351.257812 137.722656 352.289062 138.59375 Z M 352.289062 138.59375 " fill-opacity="1" fill-rule="nonzero"/></g><path fill="#000000" d="M 269.867188 207.484375 C 270.816406 198.785156 265.628906 224.453125 262.503906 232.597656 L 271.6875 221.800781 C 271.6875 221.800781 269.074219 214.761719 269.867188 207.484375 Z M 269.867188 207.484375 " fill-opacity="1" fill-rule="nonzero"/><path fill="#000000" d="M 365.550781 207.566406 C 365.550781 207.566406 367.609375 241.695312 362.066406 248.378906 C 358.742188 252.292969 353.910156 254.628906 348.765625 254.746094 C 348.765625 254.746094 347.773438 255.894531 358.066406 255.339844 C 368.359375 254.785156 370.855469 258.9375 368.875 245.332031 C 366.894531 231.730469 365.550781 207.566406 365.550781 207.566406 Z M 365.550781 207.566406 " fill-opacity="1" fill-rule="nonzero"/><path fill="#000000" d="M 318.28125 136.574219 C 325.328125 137.445312 332.453125 137.207031 339.460938 135.980469 C 340.808594 135.746094 340.253906 133.726562 338.90625 133.964844 C 332.097656 135.152344 325.128906 135.308594 318.28125 134.480469 C 316.9375 134.320312 316.9375 136.417969 318.28125 136.574219 Z M 318.28125 136.574219 " fill-opacity="1" fill-rule="nonzero"/><path fill="#000000" d="M 307.988281 160.542969 C 323.984375 160.183594 339.976562 158.839844 355.8125 156.507812 C 357.117188 156.308594 356.5625 154.253906 355.257812 154.449219 C 339.621094 156.785156 323.824219 158.128906 307.988281 158.445312 C 306.644531 158.484375 306.644531 160.582031 307.988281 160.542969 Z M 307.988281 160.542969 " fill-opacity="1" fill-rule="nonzero"/><path fill="#000000" d="M 319.746094 254.390625 C 323.070312 262.617188 325.367188 271.199219 326.59375 279.976562 C 326.753906 281.324219 328.773438 280.769531 328.613281 279.425781 C 327.386719 270.644531 325.089844 262.0625 321.765625 253.835938 C 321.289062 252.609375 319.230469 253.125 319.746094 254.390625 Z M 319.746094 254.390625 " fill-opacity="1" fill-rule="nonzero"/><path fill="#000000" d="M 183.804688 181.976562 C 185.03125 180.554688 187.367188 180.355469 189.070312 179.800781 C 191.046875 179.128906 193.027344 178.378906 194.925781 177.507812 C 198.808594 175.726562 202.449219 173.472656 205.8125 170.824219 C 206.882812 169.992188 205.417969 168.53125 204.347656 169.359375 C 200.90625 172.050781 197.183594 174.265625 193.183594 176.003906 C 191.246094 176.835938 189.265625 177.546875 187.246094 178.140625 C 185.464844 178.65625 183.566406 179.011719 182.339844 180.511719 C 181.113281 182.015625 182.933594 183.003906 183.804688 181.976562 Z M 183.804688 181.976562 " fill-opacity="1" fill-rule="nonzero"/><path fill="#000000" d="M 173.867188 150.417969 C 177.191406 150.457031 180.476562 151.089844 183.566406 152.316406 C 184.121094 152.472656 184.714844 152.15625 184.832031 151.5625 C 184.953125 150.96875 184.675781 150.417969 184.082031 150.296875 C 180.792969 149.03125 177.351562 148.359375 173.828125 148.320312 C 172.519531 148.320312 172.519531 150.417969 173.867188 150.417969 Z M 173.867188 150.417969 " fill-opacity="1" fill-rule="nonzero"/><path fill="#000000" d="M 290.097656 78.753906 C 290.847656 82.988281 291.363281 87.257812 291.640625 91.570312 C 291.878906 95.761719 291.640625 99.992188 291.996094 104.144531 C 292.429688 109.601562 294.808594 115.21875 298.726562 119.054688 C 302.644531 122.890625 306.207031 126.449219 310.957031 127.875 C 316.898438 129.652344 322.519531 127.4375 327.464844 124.078125 C 330.632812 121.980469 333.523438 119.488281 336.097656 116.683594 C 337.085938 115.652344 337.957031 114.507812 338.667969 113.28125 C 339.304688 112.132812 337.480469 111.066406 336.847656 112.253906 C 335.066406 115.457031 331.859375 118.144531 329.011719 120.359375 C 324.378906 123.957031 318.679688 127.558594 312.542969 126.132812 C 307.910156 125.027344 304.070312 121.347656 300.746094 118.105469 C 299.636719 117.039062 298.6875 116.128906 297.933594 114.863281 C 296.035156 111.582031 294.449219 108.257812 294.09375 104.382812 C 293.738281 100.507812 294.015625 95.839844 293.738281 91.570312 C 293.460938 87.097656 292.90625 82.628906 292.113281 78.199219 C 291.878906 76.894531 289.859375 77.449219 290.097656 78.753906 Z M 290.097656 78.753906 " fill-opacity="1" fill-rule="nonzero"/><path fill="#000000" d="M 344.332031 94.140625 C 345.636719 92.203125 348.367188 89.433594 350.863281 91.292969 C 353.355469 93.152344 353.277344 95.996094 353 98.332031 C 352.605469 100.941406 351.378906 103.355469 349.515625 105.210938 C 347.65625 107.109375 345.203125 109.285156 342.46875 109.640625 C 341.125 109.800781 341.125 111.898438 342.46875 111.738281 C 345.992188 111.304688 349.160156 108.773438 351.457031 106.203125 C 353.753906 103.671875 355.097656 100.425781 355.179688 97.027344 C 355.179688 94.019531 353.949219 90.027344 350.824219 88.917969 C 347.695312 87.8125 344.332031 90.382812 342.550781 93.070312 C 341.796875 94.21875 343.617188 95.246094 344.332031 94.140625 Z M 344.332031 94.140625 " fill-opacity="1" fill-rule="nonzero"/><path fill="#000000" d="M 350.742188 94.21875 C 348.804688 93.546875 347.101562 95.285156 345.992188 96.628906 C 344.84375 98.054688 343.972656 99.636719 343.378906 101.335938 C 343.222656 101.890625 343.578125 102.445312 344.09375 102.601562 C 344.09375 102.601562 344.09375 102.601562 344.132812 102.601562 C 344.648438 102.761719 345.203125 102.484375 345.359375 101.96875 C 345.359375 101.929688 345.359375 101.929688 345.398438 101.890625 C 345.480469 101.691406 345.519531 101.535156 345.597656 101.375 L 345.714844 101.058594 C 345.675781 101.179688 345.714844 101.058594 345.757812 101.019531 L 346.230469 100.03125 L 346.785156 99.082031 L 347.140625 98.609375 L 347.261719 98.449219 C 347.261719 98.449219 347.457031 98.171875 347.339844 98.292969 C 347.773438 97.738281 348.289062 97.183594 348.804688 96.710938 L 349.042969 96.472656 C 348.960938 96.550781 349.082031 96.472656 349.121094 96.472656 L 349.398438 96.273438 L 349.476562 96.273438 L 349.753906 96.195312 L 350.070312 96.195312 C 349.914062 96.195312 350.148438 96.234375 350.191406 96.273438 C 350.742188 96.433594 351.335938 96.117188 351.457031 95.5625 C 351.613281 95.007812 351.296875 94.417969 350.742188 94.257812 Z M 350.742188 94.21875 " fill-opacity="1" fill-rule="nonzero"/><path fill="#000000" d="M 345.953125 99.558594 C 346.152344 99.636719 345.835938 99.476562 345.953125 99.558594 L 346.074219 99.636719 C 346.03125 99.558594 345.953125 99.558594 346.074219 99.636719 L 346.074219 99.714844 C 346.152344 99.753906 346.113281 99.753906 346.03125 99.636719 L 346.230469 99.953125 C 346.230469 99.992188 346.269531 100.070312 346.269531 100.109375 C 346.269531 100.152344 346.308594 100.347656 346.351562 100.46875 L 346.351562 100.980469 C 346.351562 101.019531 346.308594 101.257812 346.351562 101.058594 C 346.390625 100.863281 346.308594 101.140625 346.308594 101.179688 C 346.269531 101.417969 346.191406 101.613281 346.113281 101.851562 L 346.03125 102.007812 L 345.875 102.285156 L 345.757812 102.445312 L 345.519531 102.722656 L 345.398438 102.800781 L 345.320312 102.878906 L 345.242188 102.878906 L 345.082031 103 C 344.566406 103.273438 344.410156 103.90625 344.6875 104.382812 C 344.6875 104.382812 344.6875 104.382812 344.6875 104.421875 C 345.003906 104.894531 345.597656 105.054688 346.113281 104.816406 C 347.339844 104.105469 348.171875 102.878906 348.367188 101.457031 C 348.605469 99.953125 348.132812 97.976562 346.46875 97.5 C 345.914062 97.34375 345.359375 97.621094 345.160156 98.171875 C 345.160156 98.171875 345.160156 98.210938 345.160156 98.210938 C 345.003906 98.765625 345.320312 99.359375 345.875 99.558594 C 345.914062 99.558594 345.914062 99.558594 345.953125 99.558594 Z M 345.953125 99.558594 " fill-opacity="1" fill-rule="nonzero"/><path fill="#000000" d="M 298.210938 82.828125 L 298.765625 82.511719 L 298.925781 82.433594 C 299.042969 82.355469 298.726562 82.511719 298.882812 82.433594 L 299.160156 82.355469 L 299.753906 82.195312 C 299.914062 82.15625 299.753906 82.234375 299.714844 82.195312 L 300.902344 82.195312 L 301.21875 82.273438 L 301.496094 82.394531 C 301.65625 82.433594 301.496094 82.394531 301.457031 82.355469 L 301.617188 82.433594 L 302.210938 82.75 C 302.683594 83.066406 303.316406 82.90625 303.636719 82.394531 C 303.871094 81.878906 303.714844 81.246094 303.238281 80.929688 C 301.378906 79.742188 299.003906 79.742188 297.183594 80.96875 C 296.667969 81.285156 296.507812 81.917969 296.785156 82.433594 C 297.0625 82.90625 297.695312 83.105469 298.210938 82.828125 C 298.210938 82.789062 298.210938 82.789062 298.210938 82.789062 Z M 298.210938 82.828125 " fill-opacity="1" fill-rule="nonzero"/><path fill="#000000" d="M 300.664062 90.578125 C 300.902344 90.816406 301.0625 91.132812 301.140625 91.449219 C 301.378906 92.121094 301.457031 92.875 301.417969 93.585938 C 301.417969 93.902344 301.339844 94.21875 301.179688 94.496094 C 301.0625 94.773438 300.785156 95.007812 300.46875 95.046875 C 299.992188 95.046875 299.597656 94.8125 299.359375 94.417969 C 299.042969 93.941406 298.882812 93.347656 298.925781 92.792969 C 298.925781 92.242188 299.042969 91.648438 299.242188 91.132812 C 299.28125 90.9375 299.359375 90.738281 299.519531 90.621094 C 299.675781 90.460938 299.914062 90.34375 300.152344 90.34375 C 300.347656 90.34375 300.507812 90.460938 300.664062 90.578125 Z M 300.664062 90.578125 " fill-opacity="1" fill-rule="nonzero"/><path fill="#000000" d="M 300.113281 91.132812 L 300.230469 91.332031 L 300.347656 91.527344 L 300.308594 91.527344 C 300.347656 91.570312 300.347656 91.609375 300.347656 91.648438 C 300.429688 91.765625 300.46875 91.925781 300.507812 92.082031 C 300.546875 92.242188 300.585938 92.4375 300.585938 92.597656 C 300.625 92.953125 300.664062 93.308594 300.625 93.664062 L 300.625 93.785156 C 300.585938 93.863281 300.585938 93.941406 300.546875 94.019531 L 300.546875 94.140625 C 300.585938 94.019531 300.507812 94.140625 300.507812 94.179688 L 300.507812 94.257812 C 300.46875 94.335938 300.585938 94.21875 300.507812 94.257812 L 300.429688 94.335938 C 300.429688 94.335938 300.546875 94.257812 300.46875 94.296875 L 300.347656 94.375 C 300.386719 94.335938 300.46875 94.335938 300.386719 94.335938 C 300.308594 94.335938 300.308594 94.296875 300.386719 94.335938 L 300.230469 94.335938 L 300.113281 94.21875 C 300.070312 94.179688 300.113281 94.21875 300.113281 94.257812 C 300.113281 94.296875 300.070312 94.179688 300.070312 94.140625 C 299.992188 94.058594 299.953125 93.980469 299.914062 93.902344 C 299.914062 93.902344 299.875 93.824219 299.914062 93.863281 C 299.953125 93.902344 299.875 93.824219 299.875 93.824219 C 299.875 93.824219 299.835938 93.664062 299.835938 93.585938 C 299.835938 93.507812 299.792969 93.425781 299.753906 93.347656 L 299.753906 92.714844 C 299.753906 92.675781 299.792969 92.476562 299.753906 92.558594 C 299.714844 92.636719 299.792969 92.359375 299.835938 92.28125 C 299.875 92.082031 299.914062 91.84375 299.992188 91.648438 C 299.992188 91.570312 300.03125 91.449219 300.070312 91.371094 C 300.113281 91.292969 300.070312 91.371094 300.070312 91.410156 C 300.070312 91.449219 300.113281 91.292969 300.03125 91.371094 C 299.953125 91.449219 300.113281 91.332031 300.113281 91.292969 C 300.113281 91.253906 300.03125 91.410156 300.113281 91.332031 C 300.113281 91.292969 300.113281 91.292969 300.152344 91.292969 C 299.992188 91.371094 300.152344 91.332031 300.191406 91.292969 C 300.230469 91.253906 300.03125 91.332031 300.070312 91.253906 L 300.308594 91.410156 C 300.664062 91.648438 301.140625 91.527344 301.339844 91.171875 C 301.339844 91.171875 301.378906 91.132812 301.378906 91.132812 C 301.578125 90.777344 301.457031 90.304688 301.101562 90.066406 C 300.625 89.671875 299.953125 89.628906 299.398438 89.90625 C 298.925781 90.183594 298.566406 90.621094 298.488281 91.171875 C 298.09375 92.160156 298.054688 93.230469 298.371094 94.21875 C 298.6875 95.207031 299.597656 96.234375 300.785156 95.957031 C 301.972656 95.679688 302.25 94.335938 302.25 93.308594 C 302.25 92.714844 302.171875 92.121094 302.011719 91.570312 C 301.894531 91.054688 301.617188 90.578125 301.257812 90.183594 C 300.941406 89.867188 300.46875 89.867188 300.152344 90.183594 C 299.914062 90.460938 299.914062 90.855469 300.113281 91.132812 Z M 300.113281 91.132812 " fill-opacity="1" fill-rule="nonzero"/><path fill="#000000" d="M 321.566406 88.839844 C 321.804688 89.078125 321.964844 89.355469 322.042969 89.671875 C 322.28125 90.34375 322.359375 91.09375 322.320312 91.804688 C 322.320312 92.121094 322.242188 92.4375 322.082031 92.714844 C 321.964844 92.992188 321.6875 93.230469 321.371094 93.269531 C 320.933594 93.308594 320.5 93.070312 320.261719 92.675781 C 319.945312 92.203125 319.824219 91.609375 319.824219 91.054688 C 319.824219 90.460938 319.945312 89.90625 320.144531 89.355469 C 320.183594 89.15625 320.261719 88.957031 320.421875 88.839844 C 320.578125 88.679688 320.816406 88.601562 321.054688 88.601562 C 321.25 88.601562 321.410156 88.722656 321.566406 88.839844 Z M 321.566406 88.839844 " fill-opacity="1" fill-rule="nonzero"/><path fill="#000000" d="M 321.015625 89.394531 L 321.132812 89.550781 L 321.25 89.75 C 321.289062 89.828125 321.210938 89.75 321.210938 89.710938 C 321.25 89.75 321.25 89.789062 321.25 89.828125 C 321.332031 89.988281 321.371094 90.144531 321.410156 90.304688 C 321.449219 90.460938 321.488281 90.621094 321.488281 90.777344 C 321.527344 91.132812 321.566406 91.488281 321.527344 91.84375 L 321.527344 91.964844 C 321.488281 92.042969 321.488281 92.121094 321.449219 92.203125 L 321.449219 92.320312 C 321.449219 92.203125 321.410156 92.320312 321.410156 92.320312 C 321.410156 92.359375 321.410156 92.359375 321.371094 92.398438 C 321.332031 92.519531 321.449219 92.359375 321.371094 92.398438 L 321.289062 92.476562 C 321.289062 92.476562 321.371094 92.4375 321.332031 92.476562 L 321.25 92.476562 L 321.132812 92.398438 C 321.09375 92.398438 321.015625 92.320312 321.09375 92.359375 L 320.972656 92.28125 C 320.972656 92.242188 320.933594 92.242188 320.933594 92.203125 L 320.777344 91.964844 C 320.777344 91.964844 320.738281 91.84375 320.777344 91.925781 L 320.777344 91.84375 C 320.777344 91.765625 320.738281 91.726562 320.738281 91.648438 C 320.695312 91.570312 320.695312 91.449219 320.65625 91.371094 L 320.65625 90.738281 C 320.65625 90.699219 320.695312 90.5 320.65625 90.621094 C 320.695312 90.5 320.695312 90.421875 320.695312 90.304688 C 320.777344 90.105469 320.816406 89.90625 320.894531 89.710938 C 320.894531 89.628906 320.933594 89.511719 321.015625 89.394531 C 320.972656 89.355469 320.972656 89.433594 320.933594 89.433594 C 320.894531 89.433594 321.015625 89.355469 320.933594 89.394531 L 321.015625 89.394531 C 321.09375 89.3125 320.933594 89.472656 321.015625 89.394531 C 321.015625 89.3125 321.054688 89.394531 321.054688 89.355469 C 321.054688 89.3125 321.054688 89.394531 321.09375 89.394531 C 321.132812 89.394531 320.933594 89.394531 320.972656 89.355469 L 321.210938 89.511719 C 321.566406 89.710938 322.042969 89.589844 322.28125 89.234375 C 322.476562 88.839844 322.359375 88.363281 322.003906 88.128906 C 321.488281 87.773438 320.855469 87.730469 320.300781 88.007812 C 319.824219 88.246094 319.507812 88.722656 319.390625 89.234375 C 319.035156 90.222656 318.996094 91.292969 319.273438 92.28125 C 319.589844 93.269531 320.5 94.335938 321.6875 94.019531 C 322.875 93.703125 323.152344 92.4375 323.152344 91.371094 C 323.152344 90.777344 323.070312 90.183594 322.875 89.628906 C 322.796875 89.117188 322.519531 88.640625 322.160156 88.285156 C 321.882812 87.929688 321.410156 87.851562 321.054688 88.128906 C 320.695312 88.40625 320.617188 88.878906 320.894531 89.234375 C 320.933594 89.3125 320.972656 89.355469 321.054688 89.394531 Z M 321.015625 89.394531 " fill-opacity="1" fill-rule="nonzero"/><path fill="#000000" d="M 322.636719 79.425781 C 320.5 78.476562 318.042969 78.515625 315.984375 79.585938 C 315.511719 79.863281 315.3125 80.496094 315.628906 81.007812 C 315.945312 81.484375 316.578125 81.640625 317.054688 81.363281 L 317.371094 81.207031 C 317.171875 81.324219 317.492188 81.167969 317.53125 81.167969 L 318.203125 80.96875 L 318.636719 80.96875 L 319.273438 80.890625 L 319.945312 80.890625 C 319.984375 80.890625 320.378906 80.929688 320.101562 80.890625 L 320.378906 80.890625 L 321.015625 81.046875 L 321.371094 81.167969 L 321.566406 81.246094 C 322.082031 81.523438 322.714844 81.324219 322.992188 80.851562 C 323.230469 80.414062 323.152344 79.664062 322.636719 79.425781 Z M 322.636719 79.425781 " fill-opacity="1" fill-rule="nonzero"/><path fill="#000000" d="M 305.96875 94.375 C 305.613281 95.207031 305.097656 95.957031 304.503906 96.628906 C 303.832031 97.382812 303.316406 98.253906 302.921875 99.160156 C 302.089844 101.21875 303 103.117188 304.03125 104.855469 C 305.058594 106.597656 306.5625 104.976562 305.851562 103.828125 C 305.375 103.117188 305.019531 102.324219 304.742188 101.535156 C 304.585938 100.824219 304.742188 100.03125 305.097656 99.398438 C 305.96875 97.816406 307.355469 96.628906 308.027344 94.929688 C 308.1875 94.375 307.832031 93.785156 307.277344 93.625 C 306.722656 93.507812 306.128906 93.824219 305.96875 94.375 Z M 305.96875 94.375 " fill-opacity="1" fill-rule="nonzero"/><path fill="#000000" d="M 309.652344 112.648438 C 313.253906 112.84375 316.738281 111.582031 319.429688 109.207031 C 319.824219 108.773438 319.824219 108.140625 319.429688 107.703125 C 318.996094 107.347656 318.402344 107.347656 317.964844 107.703125 C 315.667969 109.722656 312.699219 110.75 309.652344 110.550781 C 309.058594 110.550781 308.621094 110.988281 308.582031 111.582031 C 308.621094 112.171875 309.058594 112.609375 309.652344 112.648438 Z M 309.652344 112.648438 " fill-opacity="1" fill-rule="nonzero"/><path fill="#000000" d="M 292.273438 78.792969 C 291.957031 69.738281 298.925781 62.066406 307.949219 61.472656 C 309.296875 61.394531 309.335938 59.296875 307.949219 59.375 C 297.777344 60.007812 289.898438 68.589844 290.175781 78.792969 C 290.214844 80.140625 292.3125 80.140625 292.273438 78.792969 Z M 292.273438 78.792969 " fill-opacity="1" fill-rule="nonzero"/><path fill="#000000" d="M 310.917969 59.890625 C 312.226562 55.300781 318.320312 56.726562 321.015625 58.980469 C 324.535156 61.867188 326.160156 66.496094 327.703125 70.609375 C 329.246094 74.722656 330.910156 79.464844 333.046875 83.699219 C 334.828125 87.21875 337.164062 90.777344 340.925781 92.4375 C 342.152344 92.992188 343.222656 91.171875 341.996094 90.621094 C 338.511719 89.117188 336.492188 85.875 334.828125 82.628906 C 333.167969 79.386719 331.503906 74.761719 330 70.726562 C 327.625 64.476562 324.578125 55.976562 316.898438 54.828125 C 313.570312 54.351562 309.851562 55.933594 308.859375 59.335938 C 308.503906 60.640625 310.523438 61.195312 310.917969 59.890625 Z M 310.917969 59.890625 " fill-opacity="1" fill-rule="nonzero"/><path fill="#000000" d="M 314.402344 62.421875 C 317.648438 60.402344 321.882812 61.035156 324.457031 63.84375 C 325.367188 64.875 326.832031 63.371094 325.960938 62.382812 C 322.875 58.902344 317.292969 58.109375 313.332031 60.601562 C 312.226562 61.3125 313.253906 63.132812 314.402344 62.421875 Z M 314.402344 62.421875 " fill-opacity="1" fill-rule="nonzero"/><path fill="#000000" d="M 308.425781 55.617188 C 311.988281 49.171875 318.914062 45.929688 325.527344 43.476562 C 326.792969 43.003906 326.238281 40.984375 324.972656 41.460938 C 317.847656 44.109375 310.445312 47.628906 306.605469 54.589844 C 305.96875 55.738281 307.792969 56.804688 308.425781 55.617188 Z M 308.425781 55.617188 " fill-opacity="1" fill-rule="nonzero"/><path fill="#000000" d="M 347.101562 118.34375 C 347.101562 116.601562 347.339844 114.824219 348.566406 113.476562 C 349.792969 112.132812 351.417969 111.382812 352.84375 110.394531 C 358.78125 106.4375 362.859375 100.664062 365.90625 94.257812 C 369.863281 85.953125 369.390625 76.027344 366.894531 67.363281 C 365.46875 62.660156 363.492188 58.148438 360.957031 53.957031 C 358.898438 50.515625 356.5625 46.957031 353.277344 44.546875 C 347.300781 40.117188 338.945312 38.257812 331.625 38.21875 C 330.199219 38.21875 328.8125 38.335938 327.425781 38.335938 C 325.921875 38.296875 324.417969 38.375 322.914062 38.496094 C 311.039062 39.5625 299.199219 44.625 292.828125 55.105469 C 290.492188 58.941406 288.75 63.332031 287.445312 67.601562 C 286.492188 70.765625 285.78125 74.128906 285.898438 77.410156 C 286.058594 81.285156 287.402344 84.925781 290.332031 87.496094 C 290.808594 87.929688 291.324219 88.324219 291.878906 88.722656 C 292.945312 89.511719 294.015625 87.691406 292.90625 86.902344 C 290.53125 85.203125 288.910156 82.710938 288.273438 79.863281 C 286.890625 73.058594 290.015625 65.546875 292.828125 59.535156 C 295.675781 53.402344 300.429688 48.421875 306.40625 45.257812 C 311.039062 42.882812 316.105469 41.34375 321.289062 40.789062 C 323.667969 40.472656 326.042969 40.511719 328.417969 40.433594 C 331.78125 40.351562 334.988281 40.351562 338.351562 40.945312 C 341.71875 41.539062 345.914062 42.765625 349.320312 44.546875 C 352.722656 46.324219 354.980469 48.777344 357.117188 51.902344 C 359.808594 55.777344 362.027344 59.96875 363.6875 64.398438 C 366.699219 72.507812 368.082031 82.433594 365.152344 90.738281 C 363.609375 94.96875 361.351562 98.925781 358.503906 102.445312 C 356.800781 104.578125 354.78125 106.476562 352.523438 108.058594 C 349.714844 110.039062 346.230469 111.582031 345.320312 115.21875 C 345.082031 116.246094 345.003906 117.273438 345.003906 118.34375 C 345.042969 119.6875 347.140625 119.6875 347.101562 118.34375 Z M 347.101562 118.34375 " fill-opacity="1" fill-rule="nonzero"/><path fill="#000000" d="M 363.214844 59.574219 C 364.480469 57.160156 366.933594 55.777344 369.585938 55.460938 C 372.238281 55.144531 375.445312 56.210938 377.902344 57.753906 C 383.207031 61.117188 387.242188 66.414062 388.667969 72.546875 C 391.757812 85.753906 384.789062 98.527344 382.96875 111.34375 C 382.097656 117.550781 382.058594 124.355469 386.453125 129.296875 C 387.363281 130.285156 388.828125 128.824219 387.917969 127.796875 C 383.441406 122.773438 384.3125 115.140625 385.5 109.007812 C 386.847656 101.851562 389.382812 95.007812 390.6875 87.851562 C 391.796875 81.679688 392.035156 75.078125 389.855469 69.105469 C 387.558594 63.09375 383.167969 58.148438 377.503906 55.105469 C 372.160156 52.335938 364.519531 52.613281 361.394531 58.507812 C 360.800781 59.691406 362.582031 60.761719 363.214844 59.574219 Z M 363.214844 59.574219 " fill-opacity="1" fill-rule="nonzero"/><path fill="#000000" d="M 362.859375 59.335938 C 365.550781 58.980469 367.964844 62.105469 369.269531 64.082031 C 370.578125 66.058594 371.605469 68.394531 371.765625 70.726562 C 371.882812 72.703125 371.566406 74.679688 370.855469 76.539062 C 370.300781 78.003906 369.390625 80.019531 367.765625 80.535156 C 366.144531 81.046875 367.015625 82.945312 368.320312 82.550781 C 370.457031 81.878906 371.726562 79.863281 372.515625 77.925781 C 373.308594 75.988281 374.101562 72.941406 373.863281 70.449219 C 373.625 67.957031 372.28125 64.636719 370.578125 62.261719 C 368.875 59.890625 366.0625 56.804688 362.859375 57.242188 C 361.550781 57.398438 361.511719 59.496094 362.859375 59.335938 Z M 362.859375 59.335938 " fill-opacity="1" fill-rule="nonzero"/><path fill="#000000" d="M 359.292969 103.355469 C 359.414062 110.671875 361.828125 117.789062 366.183594 123.683594 C 370.5 129.417969 376.949219 134.714844 384.472656 134.875 C 385.820312 134.914062 385.820312 132.816406 384.472656 132.777344 C 377.503906 132.621094 371.367188 127.359375 367.527344 121.941406 C 363.648438 116.523438 361.511719 110.039062 361.394531 103.355469 C 361.351562 102.007812 359.253906 102.007812 359.292969 103.355469 Z M 359.292969 103.355469 " fill-opacity="1" fill-rule="nonzero"/><path fill="#000000" d="M 372.832031 116.5625 C 374.257812 120.480469 376.121094 124.355469 379.050781 127.398438 C 381.980469 130.445312 385.460938 132.183594 389.460938 132.304688 C 390.804688 132.34375 390.804688 130.246094 389.460938 130.207031 C 381.703125 129.96875 377.226562 122.496094 374.851562 116.007812 C 374.378906 114.785156 372.359375 115.296875 372.832031 116.5625 Z M 372.832031 116.5625 " fill-opacity="1" fill-rule="nonzero"/><path fill="#000000" d="M 334.277344 117.117188 C 334.277344 117.117188 325.644531 126.925781 314.796875 131.355469 L 313.652344 127.480469 C 313.652344 127.480469 323.269531 125.621094 324.496094 124.867188 C 327.664062 122.851562 334.277344 117.117188 334.277344 117.117188 Z M 334.277344 117.117188 " fill-opacity="1" fill-rule="nonzero"/><path fill="#000000" d="M 346.945312 110.117188 L 346.945312 110 L 346.429688 110.90625 L 346.546875 110.828125 L 345.757812 110.949219 L 345.914062 110.949219 L 345.28125 110.472656 C 345.164062 110.273438 345.121094 111.265625 345.082031 111.460938 C 345.082031 111.816406 345.042969 112.171875 345.003906 112.53125 C 344.925781 113.320312 344.84375 114.152344 344.804688 114.941406 C 344.6875 116.484375 344.609375 117.988281 344.609375 119.53125 C 344.566406 122.652344 344.84375 125.816406 345.359375 128.902344 C 345.597656 130.246094 347.617188 129.695312 347.378906 128.347656 C 346.746094 124.433594 346.546875 120.4375 346.785156 116.484375 C 346.902344 114.507812 347.140625 112.53125 347.300781 110.550781 C 347.339844 109.839844 347.101562 109.050781 346.308594 108.890625 C 345.636719 108.773438 345.003906 109.207031 344.886719 109.839844 C 344.886719 109.917969 344.84375 110 344.84375 110.078125 C 344.765625 111.421875 346.863281 111.421875 346.945312 110.078125 Z M 346.945312 110.117188 " fill-opacity="1" fill-rule="nonzero"/><path fill="#000000" d="M 346.308594 125.738281 C 341.875 125.738281 338.273438 121.113281 338.273438 115.496094 C 338.273438 111.382812 340.132812 107.703125 343.0625 106.082031 C 343.578125 105.804688 344.210938 106.003906 344.488281 106.476562 C 344.765625 106.953125 344.609375 107.585938 344.132812 107.902344 C 344.132812 107.902344 344.132812 107.902344 344.09375 107.902344 C 341.835938 109.167969 340.371094 112.132812 340.371094 115.496094 C 340.371094 119.964844 343.023438 123.640625 346.308594 123.640625 C 349.597656 123.640625 352.25 119.964844 352.25 115.496094 C 352.25 112.132812 350.785156 109.167969 348.527344 107.902344 C 348.011719 107.625 347.8125 106.992188 348.089844 106.476562 C 348.410156 106.003906 349.003906 105.84375 349.515625 106.082031 C 352.445312 107.703125 354.347656 111.382812 354.347656 115.496094 C 354.347656 121.113281 350.742188 125.738281 346.308594 125.738281 Z M 346.308594 125.738281 " fill-opacity="1" fill-rule="nonzero"/><path fill="#000000" d="M 296.667969 125.738281 C 292.351562 125.738281 288.828125 121.230469 288.828125 115.734375 C 288.828125 112.410156 290.136719 109.285156 292.3125 107.425781 L 293.066406 108.179688 L 293.738281 108.96875 C 291.957031 110.472656 290.925781 113.003906 290.925781 115.734375 C 290.925781 120.082031 293.5 123.640625 296.667969 123.640625 C 298.527344 123.640625 300.308594 122.375 301.378906 120.242188 L 303.238281 121.230469 C 301.8125 124.039062 299.359375 125.738281 296.667969 125.738281 Z M 296.667969 125.738281 " fill-opacity="1" fill-rule="nonzero"/><path fill="#000000" d="M 295.597656 233.390625 C 307.871094 232.636719 320.222656 233.628906 332.21875 236.316406 C 333.523438 236.632812 334.078125 234.617188 332.769531 234.300781 C 320.578125 231.570312 308.070312 230.542969 295.597656 231.292969 C 294.253906 231.371094 294.214844 233.46875 295.597656 233.390625 Z M 295.597656 233.390625 " fill-opacity="1" fill-rule="nonzero"/><path fill="#ffe397" d="M 263.847656 117.15625 C 263.847656 117.816406 263.816406 118.472656 263.753906 119.125 C 263.6875 119.78125 263.589844 120.429688 263.460938 121.074219 C 263.335938 121.722656 263.175781 122.359375 262.984375 122.988281 C 262.792969 123.617188 262.570312 124.238281 262.320312 124.84375 C 262.066406 125.453125 261.785156 126.046875 261.476562 126.628906 C 261.164062 127.207031 260.824219 127.769531 260.460938 128.316406 C 260.09375 128.867188 259.703125 129.394531 259.285156 129.902344 C 258.867188 130.410156 258.425781 130.898438 257.960938 131.363281 C 257.492188 131.828125 257.007812 132.269531 256.496094 132.6875 C 255.988281 133.105469 255.460938 133.496094 254.910156 133.859375 C 254.363281 134.226562 253.800781 134.566406 253.21875 134.875 C 252.636719 135.183594 252.042969 135.464844 251.433594 135.71875 C 250.828125 135.96875 250.207031 136.191406 249.578125 136.382812 C 248.945312 136.574219 248.308594 136.734375 247.664062 136.859375 C 247.015625 136.988281 246.367188 137.085938 245.710938 137.152344 C 245.054688 137.214844 244.398438 137.246094 243.738281 137.246094 C 243.082031 137.246094 242.421875 137.214844 241.769531 137.152344 C 241.113281 137.085938 240.460938 136.988281 239.816406 136.859375 C 239.167969 136.734375 238.53125 136.574219 237.902344 136.382812 C 237.269531 136.191406 236.652344 135.96875 236.042969 135.71875 C 235.433594 135.464844 234.839844 135.183594 234.257812 134.875 C 233.679688 134.566406 233.113281 134.226562 232.566406 133.859375 C 232.019531 133.496094 231.488281 133.105469 230.980469 132.6875 C 230.472656 132.269531 229.984375 131.828125 229.519531 131.363281 C 229.054688 130.898438 228.609375 130.410156 228.191406 129.902344 C 227.773438 129.394531 227.382812 128.867188 227.015625 128.316406 C 226.652344 127.769531 226.3125 127.207031 226.003906 126.628906 C 225.691406 126.046875 225.410156 125.453125 225.160156 124.84375 C 224.90625 124.238281 224.683594 123.617188 224.496094 122.988281 C 224.304688 122.359375 224.144531 121.722656 224.015625 121.074219 C 223.886719 120.429688 223.789062 119.78125 223.726562 119.125 C 223.660156 118.472656 223.628906 117.816406 223.628906 117.15625 C 223.628906 116.5 223.660156 115.84375 223.726562 115.1875 C 223.789062 114.53125 223.886719 113.882812 224.015625 113.238281 C 224.144531 112.589844 224.304688 111.953125 224.496094 111.324219 C 224.683594 110.695312 224.90625 110.074219 225.160156 109.46875 C 225.410156 108.859375 225.691406 108.265625 226.003906 107.6875 C 226.3125 107.105469 226.652344 106.542969 227.015625 105.996094 C 227.382812 105.449219 227.773438 104.917969 228.191406 104.410156 C 228.609375 103.902344 229.054688 103.414062 229.519531 102.949219 C 229.984375 102.484375 230.472656 102.042969 230.980469 101.625 C 231.488281 101.207031 232.019531 100.816406 232.566406 100.453125 C 233.113281 100.085938 233.679688 99.75 234.257812 99.4375 C 234.839844 99.128906 235.433594 98.847656 236.042969 98.59375 C 236.652344 98.34375 237.269531 98.121094 237.902344 97.929688 C 238.53125 97.738281 239.167969 97.582031 239.816406 97.453125 C 240.460938 97.324219 241.113281 97.226562 241.769531 97.164062 C 242.421875 97.097656 243.082031 97.066406 243.738281 97.066406 C 244.398438 97.066406 245.054688 97.097656 245.710938 97.164062 C 246.367188 97.226562 247.015625 97.324219 247.664062 97.453125 C 248.308594 97.582031 248.945312 97.738281 249.578125 97.929688 C 250.207031 98.121094 250.828125 98.34375 251.433594 98.59375 C 252.042969 98.847656 252.636719 99.128906 253.21875 99.4375 C 253.800781 99.75 254.363281 100.085938 254.910156 100.453125 C 255.460938 100.816406 255.988281 101.207031 256.496094 101.625 C 257.007812 102.042969 257.492188 102.484375 257.960938 102.949219 C 258.425781 103.414062 258.867188 103.902344 259.285156 104.410156 C 259.703125 104.917969 260.09375 105.449219 260.460938 105.996094 C 260.824219 106.542969 261.164062 107.105469 261.476562 107.6875 C 261.785156 108.265625 262.066406 108.859375 262.320312 109.46875 C 262.570312 110.074219 262.792969 110.695312 262.984375 111.324219 C 263.175781 111.953125 263.335938 112.589844 263.460938 113.238281 C 263.589844 113.882812 263.6875 114.53125 263.753906 115.1875 C 263.816406 115.84375 263.847656 116.5 263.847656 117.15625 Z M 263.847656 117.15625 " fill-opacity="1" fill-rule="nonzero"/><path fill="#000000" d="M 243.738281 138.316406 C 232.058594 138.316406 222.558594 128.824219 222.558594 117.15625 C 222.558594 105.488281 232.058594 95.996094 243.738281 95.996094 C 255.417969 95.996094 264.917969 105.488281 264.917969 117.15625 C 264.917969 128.824219 255.417969 138.316406 243.738281 138.316406 Z M 243.738281 98.132812 C 233.207031 98.132812 224.65625 106.675781 224.65625 117.195312 C 224.65625 127.714844 233.207031 136.257812 243.738281 136.257812 C 254.269531 136.257812 262.820312 127.714844 262.820312 117.195312 C 262.820312 117.195312 262.820312 117.15625 262.820312 117.15625 C 262.78125 106.636719 254.269531 98.132812 243.738281 98.132812 Z M 243.738281 98.132812 " fill-opacity="1" fill-rule="nonzero"/><path fill="#000000" d="M 249.28125 109.878906 C 247.222656 107.902344 244.410156 106.558594 241.679688 108.101562 C 238.949219 109.640625 238.234375 112.214844 239.382812 114.546875 C 240.53125 116.878906 243.382812 117.039062 245.640625 117.90625 C 246.628906 118.304688 247.382812 119.214844 247.539062 120.28125 C 247.738281 121.347656 247.261719 122.140625 246.46875 122.890625 C 245.679688 123.640625 244.53125 123.878906 243.265625 123.523438 C 241.878906 123.128906 240.652344 122.296875 239.742188 121.191406 C 238.949219 120.121094 237.128906 121.152344 237.960938 122.21875 C 239.464844 124.273438 241.917969 125.777344 244.53125 125.816406 C 247.144531 125.855469 249.28125 123.761719 249.636719 121.46875 C 249.953125 118.976562 248.449219 116.640625 246.074219 115.851562 C 244.292969 115.257812 240.652344 115.019531 241.046875 112.292969 C 241.285156 110.988281 242.234375 109.957031 243.5 109.601562 C 245.203125 109.167969 246.667969 110.234375 247.816406 111.34375 C 248.964844 112.449219 250.269531 110.789062 249.28125 109.878906 Z M 249.28125 109.878906 " fill-opacity="1" fill-rule="nonzero"/><path fill="#000000" d="M 243.144531 105.609375 L 243.144531 107.585938 C 243.144531 107.863281 243.265625 108.140625 243.421875 108.335938 C 243.621094 108.535156 243.898438 108.613281 244.175781 108.613281 C 244.453125 108.613281 244.726562 108.535156 244.925781 108.335938 C 245.125 108.140625 245.242188 107.863281 245.242188 107.585938 L 245.242188 105.609375 C 245.242188 105.332031 245.125 105.054688 244.925781 104.855469 C 244.492188 104.5 243.859375 104.5 243.421875 104.855469 C 243.265625 105.054688 243.144531 105.332031 243.144531 105.609375 Z M 243.144531 105.609375 " fill-opacity="1" fill-rule="nonzero"/><path fill="#000000" d="M 243.144531 125.304688 L 243.144531 128.746094 C 243.027344 129.335938 243.421875 129.890625 243.976562 130.011719 C 244.570312 130.128906 245.125 129.734375 245.242188 129.179688 C 245.28125 129.0625 245.28125 128.902344 245.242188 128.785156 L 245.242188 125.34375 C 245.125 124.75 244.570312 124.394531 243.976562 124.511719 C 243.582031 124.550781 243.222656 124.867188 243.144531 125.304688 Z M 243.144531 125.304688 " fill-opacity="1" fill-rule="nonzero"/><path fill="#ffe397" d="M 276.792969 46.878906 C 276.792969 47.671875 276.71875 48.453125 276.5625 49.230469 C 276.40625 50.007812 276.179688 50.761719 275.875 51.496094 C 275.570312 52.226562 275.199219 52.921875 274.757812 53.578125 C 274.320312 54.238281 273.820312 54.847656 273.257812 55.40625 C 272.699219 55.96875 272.085938 56.46875 271.429688 56.90625 C 270.769531 57.347656 270.074219 57.71875 269.339844 58.023438 C 268.609375 58.324219 267.851562 58.554688 267.074219 58.710938 C 266.296875 58.863281 265.511719 58.941406 264.71875 58.941406 C 263.925781 58.941406 263.140625 58.863281 262.363281 58.710938 C 261.585938 58.554688 260.832031 58.324219 260.097656 58.023438 C 259.367188 57.71875 258.671875 57.347656 258.011719 56.90625 C 257.351562 56.46875 256.742188 55.96875 256.183594 55.40625 C 255.621094 54.847656 255.121094 54.238281 254.679688 53.578125 C 254.242188 52.921875 253.867188 52.226562 253.566406 51.496094 C 253.261719 50.761719 253.03125 50.007812 252.878906 49.230469 C 252.722656 48.453125 252.644531 47.671875 252.644531 46.878906 C 252.644531 46.085938 252.722656 45.300781 252.878906 44.523438 C 253.03125 43.75 253.261719 42.996094 253.566406 42.261719 C 253.867188 41.53125 254.242188 40.835938 254.679688 40.175781 C 255.121094 39.519531 255.621094 38.910156 256.183594 38.347656 C 256.742188 37.789062 257.351562 37.289062 258.011719 36.847656 C 258.671875 36.410156 259.367188 36.039062 260.097656 35.734375 C 260.832031 35.429688 261.585938 35.203125 262.363281 35.046875 C 263.140625 34.894531 263.925781 34.816406 264.71875 34.816406 C 265.511719 34.816406 266.296875 34.894531 267.074219 35.046875 C 267.851562 35.203125 268.609375 35.429688 269.339844 35.734375 C 270.074219 36.039062 270.769531 36.410156 271.429688 36.847656 C 272.085938 37.289062 272.699219 37.789062 273.257812 38.347656 C 273.820312 38.910156 274.320312 39.519531 274.757812 40.175781 C 275.199219 40.835938 275.570312 41.53125 275.875 42.261719 C 276.179688 42.996094 276.40625 43.75 276.5625 44.523438 C 276.71875 45.300781 276.792969 46.085938 276.792969 46.878906 Z M 276.792969 46.878906 " fill-opacity="1" fill-rule="nonzero"/><path fill="#000000" d="M 264.71875 59.96875 C 257.476562 59.96875 251.578125 54.078125 251.578125 46.839844 C 251.578125 39.601562 257.476562 33.707031 264.71875 33.707031 C 271.964844 33.707031 277.863281 39.601562 277.863281 46.839844 C 277.863281 46.839844 277.863281 46.878906 277.863281 46.878906 C 277.824219 54.117188 271.964844 59.96875 264.71875 59.96875 Z M 264.71875 35.84375 C 258.625 35.84375 253.675781 40.789062 253.675781 46.878906 C 253.675781 52.96875 258.625 57.914062 264.71875 57.914062 C 270.816406 57.914062 275.765625 52.96875 275.765625 46.878906 C 275.765625 40.789062 270.816406 35.84375 264.71875 35.84375 Z M 264.71875 35.84375 " fill-opacity="1" fill-rule="nonzero"/><path fill="#000000" d="M 268.363281 42.171875 C 266.976562 40.867188 265.078125 40.035156 263.253906 41.066406 C 261.433594 42.09375 260.960938 43.914062 261.75 45.496094 C 262.148438 46.246094 262.820312 46.800781 263.613281 47.078125 C 264.324219 47.351562 265.078125 47.433594 265.75 47.710938 C 266.183594 47.945312 266.542969 48.34375 266.621094 48.855469 C 266.660156 49.015625 266.621094 48.699219 266.621094 48.894531 L 266.621094 49.132812 C 266.621094 49.292969 266.660156 48.976562 266.621094 49.171875 C 266.582031 49.371094 266.582031 49.292969 266.582031 49.371094 C 266.542969 49.449219 266.5 49.527344 266.421875 49.609375 L 266.066406 50.003906 L 265.710938 50.28125 L 265.628906 50.28125 C 265.589844 50.320312 265.273438 50.359375 265.472656 50.359375 C 265.15625 50.398438 264.839844 50.359375 264.5625 50.242188 C 263.808594 50.042969 263.175781 49.609375 262.703125 49.015625 C 262.382812 48.539062 261.75 48.382812 261.277344 48.660156 C 260.761719 48.933594 260.601562 49.566406 260.878906 50.042969 C 260.878906 50.042969 260.878906 50.042969 260.878906 50.082031 C 261.910156 51.503906 263.492188 52.375 265.234375 52.453125 C 266.777344 52.453125 268.441406 51.070312 268.679688 49.527344 C 268.917969 47.828125 267.886719 46.167969 266.265625 45.613281 C 265.550781 45.453125 264.878906 45.257812 264.207031 45.019531 C 264.007812 44.941406 263.808594 44.820312 263.691406 44.625 C 263.613281 44.546875 263.53125 44.425781 263.53125 44.308594 L 263.53125 44.03125 C 263.613281 43.398438 264.085938 42.84375 264.71875 42.6875 C 265.550781 42.488281 266.304688 43.042969 266.859375 43.636719 C 267.414062 44.230469 269.351562 43.082031 268.363281 42.171875 Z M 268.363281 42.171875 " fill-opacity="1" fill-rule="nonzero"/><path fill="#000000" d="M 263.929688 39.917969 L 263.929688 41.105469 C 263.929688 41.261719 263.96875 41.382812 264.046875 41.5 C 264.085938 41.617188 264.164062 41.777344 264.246094 41.855469 C 264.324219 41.972656 264.484375 42.015625 264.601562 42.054688 C 264.71875 42.132812 264.839844 42.171875 264.996094 42.171875 C 265.273438 42.132812 265.550781 42.054688 265.75 41.855469 C 265.90625 41.65625 266.027344 41.382812 266.027344 41.105469 L 266.027344 39.917969 C 266.066406 39.800781 266.027344 39.640625 265.949219 39.523438 C 265.90625 39.402344 265.828125 39.285156 265.75 39.207031 C 265.628906 39.085938 265.511719 39.007812 265.394531 38.96875 C 265.273438 38.890625 265.117188 38.890625 264.996094 38.890625 C 264.71875 38.890625 264.441406 39.007812 264.246094 39.207031 C 264.046875 39.402344 263.929688 39.640625 263.929688 39.917969 Z M 263.929688 39.917969 " fill-opacity="1" fill-rule="nonzero"/><path fill="#000000" d="M 263.929688 51.742188 L 263.929688 53.800781 C 263.929688 54.394531 264.402344 54.867188 264.996094 54.867188 C 265.273438 54.867188 265.550781 54.75 265.75 54.550781 C 265.949219 54.351562 266.027344 54.078125 266.027344 53.800781 L 266.027344 51.742188 C 265.988281 51.148438 265.511719 50.714844 264.917969 50.714844 C 264.679688 50.714844 264.441406 50.832031 264.246094 50.992188 C 264.046875 51.1875 263.929688 51.464844 263.929688 51.742188 Z M 263.929688 51.742188 " fill-opacity="1" fill-rule="nonzero"/><g clip-path="url(#60750da283)"><path fill="#000000" d="M 225.886719 89.75 L 107.835938 89.75 C 105.183594 89.75 103.042969 87.613281 103.042969 84.964844 L 103.042969 4.839844 C 103.085938 2.1875 105.183594 0.09375 107.835938 0.0546875 L 225.886719 0.0546875 C 228.539062 0.09375 230.636719 2.1875 230.675781 4.839844 L 230.675781 84.964844 C 230.675781 87.613281 228.539062 89.75 225.886719 89.75 Z M 107.835938 2.148438 C 106.371094 2.1875 105.183594 3.375 105.144531 4.839844 L 105.144531 84.964844 C 105.144531 86.464844 106.332031 87.652344 107.835938 87.652344 L 225.886719 87.652344 C 227.390625 87.652344 228.578125 86.464844 228.578125 84.964844 L 228.578125 4.839844 C 228.539062 3.375 227.347656 2.1875 225.886719 2.148438 Z M 107.835938 2.148438 " fill-opacity="1" fill-rule="nonzero"/></g><path fill="#6293f1" d="M 121.769531 28.171875 L 129.332031 28.171875 L 129.332031 44.230469 L 121.769531 44.230469 Z M 121.769531 28.171875 " fill-opacity="1" fill-rule="nonzero"/><path fill="#000000" d="M 130.359375 45.257812 L 120.699219 45.257812 L 120.699219 27.105469 L 130.359375 27.105469 Z M 122.800781 43.160156 L 128.261719 43.160156 L 128.261719 29.199219 L 122.800781 29.199219 Z M 122.800781 43.160156 " fill-opacity="1" fill-rule="nonzero"/><path fill="#6293f1" d="M 137.289062 20.421875 L 144.847656 20.421875 L 144.847656 44.230469 L 137.289062 44.230469 Z M 137.289062 20.421875 " fill-opacity="1" fill-rule="nonzero"/><path fill="#000000" d="M 145.917969 45.257812 L 136.257812 45.257812 L 136.257812 19.390625 L 145.917969 19.390625 Z M 138.355469 43.160156 L 143.820312 43.160156 L 143.820312 21.488281 L 138.355469 21.488281 Z M 138.355469 43.160156 " fill-opacity="1" fill-rule="nonzero"/><path fill="#6293f1" d="M 152.847656 15.082031 L 160.40625 15.082031 L 160.40625 44.230469 L 152.847656 44.230469 Z M 152.847656 15.082031 " fill-opacity="1" fill-rule="nonzero"/><path fill="#000000" d="M 161.4375 45.257812 L 151.777344 45.257812 L 151.777344 14.054688 L 161.4375 14.054688 Z M 153.875 43.160156 L 159.339844 43.160156 L 159.339844 16.148438 L 153.875 16.148438 Z M 153.875 43.160156 " fill-opacity="1" fill-rule="nonzero"/><path fill="#6293f1" d="M 168.363281 28.015625 L 175.925781 28.015625 L 175.925781 44.230469 L 168.363281 44.230469 Z M 168.363281 28.015625 " fill-opacity="1" fill-rule="nonzero"/><path fill="#000000" d="M 176.996094 45.257812 L 167.296875 45.257812 L 167.296875 26.945312 L 176.996094 26.945312 Z M 169.394531 43.160156 L 174.894531 43.160156 L 174.894531 29.042969 L 169.394531 29.042969 Z M 169.394531 43.160156 " fill-opacity="1" fill-rule="nonzero"/><path fill="#000000" d="M 190.414062 25.441406 L 216.382812 25.441406 L 216.382812 27.539062 L 190.414062 27.539062 Z M 190.414062 25.441406 " fill-opacity="1" fill-rule="nonzero"/><path fill="#000000" d="M 190.414062 32.445312 L 216.382812 32.445312 L 216.382812 34.539062 L 190.414062 34.539062 Z M 190.414062 32.445312 " fill-opacity="1" fill-rule="nonzero"/><path fill="#000000" d="M 190.414062 39.445312 L 216.382812 39.445312 L 216.382812 41.539062 L 190.414062 41.539062 Z M 190.414062 39.445312 " fill-opacity="1" fill-rule="nonzero"/><path fill="#a3dfbe" d="M 203.160156 59.890625 L 187.761719 61.234375 L 165.910156 68.828125 L 143.34375 65.191406 L 125.175781 73.414062 L 120.699219 75.195312 L 215.910156 75.195312 L 215.910156 54.90625 Z M 203.160156 59.890625 " fill-opacity="1" fill-rule="nonzero"/><path fill="#000000" d="M 215.910156 76.261719 L 120.699219 76.261719 C 120.1875 76.261719 119.75 75.90625 119.671875 75.394531 C 119.550781 74.917969 119.828125 74.40625 120.304688 74.246094 L 124.777344 72.464844 L 142.910156 64.242188 C 143.105469 64.160156 143.34375 64.121094 143.542969 64.160156 L 165.832031 67.761719 L 187.40625 60.246094 L 187.644531 60.246094 L 202.882812 58.902344 L 215.511719 53.957031 C 215.828125 53.839844 216.226562 53.878906 216.503906 54.078125 C 216.78125 54.273438 216.9375 54.589844 216.9375 54.945312 L 216.9375 75.234375 C 216.898438 75.789062 216.464844 76.222656 215.910156 76.261719 Z M 126.085938 74.167969 L 214.839844 74.167969 L 214.839844 56.449219 L 203.519531 60.878906 L 203.242188 60.957031 L 187.960938 62.261719 L 166.265625 69.816406 C 166.109375 69.894531 165.910156 69.894531 165.75 69.855469 L 143.503906 66.296875 Z M 126.085938 74.167969 " fill-opacity="1" fill-rule="nonzero"/><path fill="#000000" d="M 120.898438 75.117188 C 120.34375 75.117188 119.871094 74.640625 119.871094 74.089844 L 119.871094 55.5 C 119.75 54.90625 120.148438 54.351562 120.699219 54.234375 C 121.292969 54.117188 121.847656 54.511719 121.96875 55.066406 C 122.007812 55.183594 122.007812 55.34375 121.96875 55.460938 L 121.96875 74.046875 C 121.929688 74.679688 121.492188 75.117188 120.898438 75.117188 Z M 120.898438 75.117188 " fill-opacity="1" fill-rule="nonzero"/><path fill="#a3dfbe" d="M 99.796875 109.007812 C 98.214844 109.007812 96.59375 109.167969 95.046875 109.484375 L 99.917969 131.789062 L 77.550781 126.925781 C 77.234375 128.507812 77.035156 130.089844 77.035156 131.710938 C 76.996094 144.285156 87.171875 154.449219 99.757812 154.492188 C 112.347656 154.53125 122.523438 144.367188 122.5625 131.789062 C 122.601562 119.214844 112.425781 109.050781 99.796875 109.007812 C 99.839844 109.007812 99.796875 109.007812 99.796875 109.007812 Z M 99.796875 109.007812 " fill-opacity="1" fill-rule="nonzero"/><path fill="#000000" d="M 99.796875 155.519531 C 86.65625 155.480469 76.007812 144.839844 76.007812 131.710938 C 76.007812 130.011719 76.164062 128.347656 76.5625 126.6875 C 76.601562 126.410156 76.757812 126.171875 76.996094 126.015625 C 77.234375 125.898438 77.511719 125.816406 77.789062 125.898438 L 98.53125 130.40625 L 94.058594 109.722656 C 93.980469 109.445312 94.019531 109.167969 94.175781 108.929688 C 94.335938 108.691406 94.574219 108.535156 94.851562 108.496094 C 96.472656 108.140625 98.136719 107.941406 99.796875 107.941406 C 112.941406 108.496094 123.195312 119.570312 122.640625 132.699219 C 122.125 145.078125 112.1875 155.003906 99.796875 155.519531 Z M 78.382812 128.230469 C 78.183594 129.378906 78.105469 130.523438 78.105469 131.710938 C 78.105469 143.417969 87.605469 152.867188 99.285156 152.867188 C 110.960938 152.867188 120.464844 143.378906 120.464844 131.710938 C 120.464844 120.003906 110.960938 110.550781 99.285156 110.550781 C 98.136719 110.550781 97.027344 110.671875 95.878906 110.828125 L 100.390625 131.550781 C 100.511719 132.105469 100.195312 132.621094 99.640625 132.738281 C 99.480469 132.777344 99.324219 132.777344 99.164062 132.738281 Z M 78.382812 128.230469 " fill-opacity="1" fill-rule="nonzero"/><path fill="#6293f1" d="M 95.046875 109.445312 C 86.300781 111.304688 79.410156 118.144531 77.511719 126.886719 L 99.917969 131.789062 Z M 95.046875 109.445312 " fill-opacity="1" fill-rule="nonzero"/><path fill="#000000" d="M 99.917969 132.816406 L 99.679688 132.816406 L 77.273438 127.914062 C 76.71875 127.796875 76.363281 127.242188 76.480469 126.6875 C 78.460938 117.511719 85.664062 110.355469 94.851562 108.417969 C 95.40625 108.296875 95.957031 108.652344 96.078125 109.207031 L 100.945312 131.550781 C 101.027344 131.90625 100.90625 132.265625 100.667969 132.5 C 100.472656 132.699219 100.195312 132.816406 99.917969 132.816406 Z M 78.777344 126.09375 L 98.53125 130.40625 L 94.257812 110.710938 C 86.695312 112.6875 80.796875 118.582031 78.777344 126.09375 Z M 78.777344 126.09375 " fill-opacity="1" fill-rule="nonzero"/><path fill="#000000" d="M 77.550781 126.925781 L 77.15625 130.167969 C 77.15625 130.167969 95.761719 131.511719 98.175781 131.828125 Z M 77.550781 126.925781 " fill-opacity="1" fill-rule="nonzero"/><path fill="#000000" d="M 98.175781 131.828125 L 98.414062 131.90625 C 98.414062 131.90625 98.332031 131.867188 98.175781 131.828125 Z M 98.175781 131.828125 " fill-opacity="1" fill-rule="nonzero"/><path fill="#ffffff" d="M 165.691406 219.4375 C 166.378906 219.910156 167.019531 220.441406 167.617188 221.023438 C 168.210938 221.605469 168.75 222.226562 169.226562 222.894531 C 169.707031 223.5625 170.117188 224.257812 170.460938 224.984375 C 170.808594 225.710938 171.078125 226.453125 171.273438 227.210938 C 171.46875 227.96875 171.585938 228.726562 171.628906 229.484375 C 171.667969 230.246094 171.628906 230.992188 171.511719 231.722656 C 171.394531 232.457031 171.203125 233.160156 170.933594 233.839844 C 170.664062 234.515625 170.324219 235.152344 169.910156 235.75 C 169.5 236.347656 169.023438 236.890625 168.488281 237.382812 C 167.949219 237.875 167.355469 238.304688 166.710938 238.675781 C 166.070312 239.046875 165.382812 239.34375 164.660156 239.578125 C 163.933594 239.808594 163.183594 239.96875 162.402344 240.054688 C 161.625 240.140625 160.835938 240.152344 160.035156 240.089844 C 159.230469 240.023438 158.433594 239.886719 157.640625 239.679688 C 156.847656 239.46875 156.070312 239.1875 155.316406 238.839844 C 154.558594 238.488281 153.835938 238.078125 153.148438 237.601562 C 152.457031 237.128906 151.816406 236.597656 151.21875 236.015625 C 150.625 235.433594 150.089844 234.808594 149.609375 234.144531 C 149.128906 233.476562 148.71875 232.78125 148.375 232.054688 C 148.03125 231.328125 147.761719 230.585938 147.566406 229.828125 C 147.367188 229.070312 147.25 228.3125 147.210938 227.554688 C 147.167969 226.792969 147.207031 226.046875 147.324219 225.3125 C 147.441406 224.582031 147.632812 223.875 147.902344 223.199219 C 148.171875 222.523438 148.515625 221.882812 148.925781 221.289062 C 149.335938 220.691406 149.8125 220.148438 150.351562 219.65625 C 150.890625 219.164062 151.480469 218.730469 152.125 218.363281 C 152.769531 217.992188 153.453125 217.691406 154.179688 217.460938 C 154.902344 217.230469 155.65625 217.070312 156.433594 216.984375 C 157.210938 216.898438 158.003906 216.886719 158.804688 216.949219 C 159.605469 217.011719 160.402344 217.148438 161.199219 217.359375 C 161.992188 217.570312 162.765625 217.851562 163.523438 218.199219 C 164.277344 218.550781 165 218.960938 165.691406 219.4375 Z M 165.691406 219.4375 " fill-opacity="1" fill-rule="nonzero"/><path fill="#000000" d="M 161 241.417969 C 153.796875 241.417969 147.183594 235.761719 146.195312 228.882812 C 145.757812 225.519531 146.628906 222.355469 148.730469 219.941406 C 151.023438 217.414062 154.3125 215.988281 157.753906 216.066406 C 164.960938 216.066406 171.570312 221.683594 172.519531 228.605469 C 173.035156 231.808594 172.085938 235.050781 169.988281 237.503906 C 167.808594 240.035156 164.601562 241.417969 161 241.417969 Z M 157.753906 218.164062 C 154.746094 218.164062 152.09375 219.269531 150.3125 221.328125 C 148.609375 223.34375 147.859375 225.996094 148.292969 228.605469 C 149.125 234.496094 154.824219 239.320312 161 239.320312 C 164.007812 239.320312 166.621094 238.175781 168.402344 236.117188 C 170.144531 234.140625 170.898438 231.492188 170.460938 228.882812 C 169.632812 222.949219 163.929688 218.164062 157.753906 218.164062 Z M 157.753906 218.164062 " fill-opacity="1" fill-rule="nonzero"/></svg>