<svg width="680" height="141" viewBox="0 0 680 141" fill="none" xmlns="http://www.w3.org/2000/svg">
<path d="M0 0.0131836H16.3599C17.2716 0.0131836 18.146 0.374925 18.7907 1.01876C19.4354 1.6626 19.7976 2.53569 19.7976 3.44622V91.7799H64.3728V108.333H0V0.0131836Z" fill="#002E75"/>
<path d="M99.6048 10.7833C99.6695 12.9905 99.0732 15.167 97.8923 17.0338C96.7113 18.9007 94.9994 20.373 92.9757 21.2626C90.952 22.1522 88.7085 22.4185 86.5324 22.0274C84.3562 21.6363 82.3465 20.6057 80.7603 19.0673C79.1741 17.5289 78.0837 15.5527 77.6286 13.3918C77.1734 11.2309 77.3743 8.98353 78.2054 6.93731C79.0366 4.89109 80.4602 3.13903 82.2941 1.9055C84.128 0.671973 86.2889 0.0132369 88.5 0.0132017C89.9503 -0.0592772 91.4 0.167255 92.7589 0.678659C94.1178 1.19006 95.3567 1.97522 96.3985 2.98558C97.4402 3.99594 98.2625 5.20989 98.8141 6.55143C99.3657 7.89297 99.6349 9.33335 99.6048 10.7833ZM78.5257 108.333V30.0704H98.3232V104.905C98.3232 105.815 97.9609 106.688 97.3163 107.332C96.6716 107.976 95.7972 108.338 94.8855 108.338L78.5257 108.333Z" fill="#002E75"/>
<path d="M116.813 0.0131836H136.606V40.836H136.927C139.66 36.75 143.412 33.4451 147.813 31.2464C152.213 29.0478 157.111 28.0312 162.025 28.2967C181.177 28.2967 194.85 44.2096 194.694 67.9948C194.694 96.1182 176.842 110.098 159.127 110.098C154.152 110.354 149.202 109.228 144.828 106.845C140.455 104.462 136.827 100.915 134.35 96.5983H134.029L133.324 105.183C133.253 106.042 132.862 106.842 132.227 107.425C131.593 108.008 130.763 108.333 129.9 108.333H116.168C116.484 103.03 116.809 94.3537 116.809 86.3126L116.813 0.0131836ZM136.606 76.0268C136.598 77.5924 136.76 79.1541 137.087 80.6851C138.037 84.6189 140.282 88.1202 143.463 90.627C146.644 93.1339 150.576 94.5009 154.628 94.509C167.019 94.509 174.576 84.708 174.576 68.7995C174.576 54.9755 167.98 43.7252 154.783 43.7252C150.659 43.8239 146.687 45.3039 143.506 47.9278C140.325 50.5517 138.119 54.1673 137.243 58.1937C136.843 59.8781 136.628 61.6012 136.602 63.3321L136.606 76.0268Z" fill="#002E75"/>
<path d="M224.945 74.742C225.426 88.8814 236.389 94.9889 249.082 94.9889C255.223 95.0668 261.343 94.2537 267.25 92.5751C267.705 92.4411 268.182 92.4021 268.652 92.4604C269.123 92.5188 269.576 92.6734 269.984 92.9144C270.392 93.1555 270.746 93.4778 271.024 93.8614C271.302 94.245 271.497 94.6819 271.598 95.1443L273.7 104.955C265.003 108.415 255.704 110.109 246.345 109.937C220.917 109.937 205.953 94.349 205.953 70.4038C205.953 48.7078 219.15 28.2964 244.248 28.2964C269.676 28.2964 278.044 49.1878 278.044 66.3809C278.044 68.3741 277.952 70.134 277.815 71.6106C277.738 72.4659 277.344 73.2615 276.709 73.841C276.075 74.4206 275.246 74.742 274.386 74.742H224.945ZM259.372 60.9088C259.537 53.6768 256.314 41.7819 243.122 41.7819C230.896 41.7819 225.728 52.8677 224.94 60.9088H259.372Z" fill="#002E75"/>
<path d="M293.974 55.2954C293.974 44.6897 293.809 36.9732 293.328 30.0657H307.129C308.009 30.0645 308.855 30.4007 309.494 31.0046C310.133 31.6086 310.515 32.4343 310.562 33.3115L311.189 44.8498H311.675C313.099 40.1938 315.942 36.0974 319.807 33.1305C323.672 30.1636 328.367 28.474 333.239 28.2968C334.807 28.2826 336.371 28.4435 337.903 28.7767V43.4053C337.906 43.8693 337.814 44.3289 337.632 44.756C337.45 45.1831 337.184 45.5686 336.848 45.8891C336.512 46.2096 336.114 46.4585 335.678 46.6201C335.243 46.7818 334.779 46.8528 334.315 46.8291C333.591 46.788 332.809 46.7697 331.953 46.7697C327.68 46.6608 323.516 48.1235 320.252 50.8793C316.987 53.6352 314.851 57.4924 314.247 61.7184C313.916 63.6818 313.756 65.6701 313.767 67.6612V108.319H293.974V55.2954Z" fill="#002E75"/>
<path d="M407.417 105.919C400.354 108.711 392.806 110.076 385.212 109.933C360.754 109.933 344.82 94.1845 344.82 69.9193C344.82 46.4542 360.915 28.2966 388.43 28.2966C394.978 28.2801 401.473 29.4799 407.582 31.8348L404.963 42.8839C404.858 43.3427 404.659 43.7747 404.378 44.1529C404.098 44.531 403.742 44.8468 403.333 45.0809C402.924 45.3149 402.471 45.4619 402.002 45.5125C401.534 45.5632 401.06 45.5165 400.61 45.3752C396.877 44.2117 392.981 43.6547 389.071 43.7251C373.965 43.7251 364.934 54.8152 365.098 69.1146C365.098 85.1878 375.553 94.349 389.071 94.349C393.121 94.3805 397.153 93.7962 401.027 92.6163C401.49 92.4725 401.977 92.4283 402.458 92.4863C402.939 92.5443 403.403 92.7032 403.818 92.9528C404.233 93.2024 404.59 93.537 404.867 93.9344C405.143 94.3318 405.332 94.783 405.421 95.2586L407.417 105.919Z" fill="#F83F00"/>
<path d="M495.113 68.4751C495.113 97.2385 474.835 110.075 454.882 110.075C432.837 110.075 415.621 94.9894 415.621 69.7368C415.621 44.0271 432.517 28.2739 456.173 28.2739C479.509 28.2968 495.113 44.69 495.113 68.4751ZM436.064 69.2795C436.064 84.3652 443.626 95.7937 455.537 95.7937C466.802 95.7937 474.689 84.8634 474.689 68.9503C474.689 56.74 469.196 42.5962 455.701 42.5962C441.69 42.6008 436.055 56.2601 436.055 69.2795H436.064Z" fill="#F83F00"/>
<path d="M585.86 68.4751C585.86 97.2385 565.582 110.075 545.629 110.075C523.579 110.075 506.363 94.9894 506.363 69.7368C506.363 44.0271 523.259 28.2739 546.915 28.2739C570.265 28.2968 585.86 44.69 585.86 68.4751ZM526.811 69.2795C526.811 84.3652 534.373 95.7937 546.283 95.7937C557.544 95.7937 565.435 84.8634 565.435 68.9503C565.435 56.74 559.942 42.5962 546.443 42.5962C532.446 42.6008 526.811 56.2601 526.811 69.2795Z" fill="#F83F00"/>
<path d="M602.095 56.0996C602.095 45.8139 601.774 37.4618 601.449 30.0653H615.639C616.503 30.0659 617.335 30.3912 617.969 30.9765C618.604 31.5618 618.994 32.3642 619.063 33.224L619.777 42.1202H620.093C622.986 37.6845 626.985 34.0773 631.697 31.6534C636.409 29.2295 641.672 28.0726 646.967 28.2963C664.989 28.2963 679.953 43.7247 679.953 68.1498C679.953 96.4332 662.101 110.093 644.248 110.093C639.995 110.31 635.754 109.47 631.906 107.648C628.057 105.826 624.722 103.078 622.199 99.6515H621.878V140.145H602.095V56.0996ZM621.888 75.5466C621.88 77.3783 622.041 79.2067 622.368 81.0092C623.318 84.943 625.564 88.4443 628.744 90.9511C631.925 93.458 635.857 94.8253 639.909 94.8334C652.46 94.8334 659.862 84.3875 659.862 68.9589C659.862 55.1395 653.101 43.8939 640.39 43.8939C636.207 43.9961 632.178 45.491 628.944 48.1414C625.71 50.7918 623.455 54.4458 622.538 58.5226C622.164 60.1592 621.948 61.8276 621.892 63.5053L621.888 75.5466Z" fill="#F83F00"/>
</svg>
