<svg width="192" height="208" viewBox="0 0 192 208" fill="none" xmlns="http://www.w3.org/2000/svg">
<path d="M102.674 105.589V198.413C102.674 200.026 102.256 201.611 101.459 203.013C100.663 204.415 99.5158 205.585 98.1309 206.41C96.746 207.234 95.1707 207.684 93.5595 207.716C91.9484 207.747 90.3567 207.359 88.9407 206.589L12.5704 165.155C8.76751 163.096 5.59173 160.045 3.37898 156.328C1.16623 152.61 -0.00120774 148.363 0.000169536 144.036V60.4887C-0.0102055 58.1141 0.455709 55.7616 1.37032 53.5705C2.03654 52.0044 2.86618 50.4698 3.7021 50.0485C5.54992 49.1239 102.674 105.589 102.674 105.589Z" fill="#377DFF"/>
<path d="M3.70215 50.0485L89.3995 3.3818C93.5892 1.09635 98.2978 -0.067496 103.069 0.00302429C107.84 0.0735446 112.512 1.37604 116.633 3.78431L186.793 44.8661C188.222 45.7028 189.402 46.9061 190.21 48.3516C191.018 49.7971 191.426 51.4324 191.392 53.0885C191.357 54.7445 190.881 56.3613 190.013 57.7718C189.145 59.1822 187.916 60.3351 186.454 61.1114L102.674 105.589" fill="black"/>
</svg>
